<?xml version="1.0" encoding="utf-8"?>
<!-- Generator: Adobe Illustrator 18.1.1, SVG Export Plug-In . SVG Version: 6.00 Build 0)  -->
<svg version="1.1" id="Layer_1" xmlns="http://www.w3.org/2000/svg" xmlns:xlink="http://www.w3.org/1999/xlink" x="0px" y="0px"
	 viewBox="0 0 300 100" enable-background="new 0 0 300 100" xml:space="preserve">
<rect x="1.8" y="23.9" fill="#900D0C" width="296.4" height="52.1"/>
<g>
	<rect x="10.4" y="30.5" fill-rule="evenodd" clip-rule="evenodd" fill="#FFFFFF" width="37.2" height="37.8"/>
	<rect x="53.3" y="30.5" fill-rule="evenodd" clip-rule="evenodd" fill="#FFFFFF" width="37.2" height="37.8"/>
	<rect x="96.3" y="30.5" fill-rule="evenodd" clip-rule="evenodd" fill="#FFFFFF" width="37.2" height="37.8"/>
	<path fill="#900D0C" d="M29.4,62.9h-9v-27h6.9c2.2,0,3.9,0.3,5.1,0.9c1.2,0.6,2.2,1.4,2.8,2.5c0.7,1.1,1,2.3,1,3.6
		c0,2.7-1.3,4.5-4,5.7c1.9,0.4,3.5,1.2,4.6,2.4c1.1,1.3,1.7,2.7,1.7,4.5c0,1.4-0.3,2.6-1,3.7c-0.7,1.1-1.7,2-3.1,2.7
		C33.1,62.5,31.4,62.9,29.4,62.9L29.4,62.9z M27.4,39.3h-3.3v8.1h2.5c2,0,3.5-0.4,4.3-1.2c0.9-0.8,1.3-1.8,1.3-3
		C32.3,40.6,30.7,39.3,27.4,39.3L27.4,39.3z M27.7,50.9h-3.6v8.6h3.7c2.1,0,3.5-0.2,4.2-0.5c0.7-0.3,1.3-0.8,1.8-1.5
		c0.4-0.7,0.7-1.4,0.7-2.2c0-0.8-0.2-1.6-0.7-2.3c-0.5-0.7-1.2-1.2-2-1.5C31,51,29.6,50.9,27.7,50.9L27.7,50.9z"/>
	<path fill="#900D0C" d="M72.4,62.9h-9v-27h6.9c2.2,0,3.9,0.3,5.1,0.9c1.2,0.6,2.2,1.4,2.8,2.5c0.6,1.1,1,2.3,1,3.6
		c0,2.7-1.3,4.5-4,5.7c1.9,0.4,3.5,1.2,4.6,2.4c1.1,1.3,1.7,2.7,1.7,4.5c0,1.4-0.3,2.6-1,3.7c-0.7,1.1-1.7,2-3.1,2.7
		C76.1,62.5,74.5,62.9,72.4,62.9L72.4,62.9z M70.5,39.3h-3.3v8.1h2.5c2,0,3.5-0.4,4.3-1.2c0.9-0.8,1.3-1.8,1.3-3
		C75.4,40.6,73.8,39.3,70.5,39.3L70.5,39.3z M70.8,50.9h-3.6v8.6H71c2.1,0,3.5-0.2,4.2-0.5c0.7-0.3,1.3-0.8,1.8-1.5
		c0.4-0.7,0.7-1.4,0.7-2.2c0-0.8-0.2-1.6-0.7-2.3c-0.5-0.7-1.2-1.2-2-1.5C74.1,51,72.7,50.9,70.8,50.9L70.8,50.9z"/>
	<path fill="#900D0C" d="M126,56.6v4.2c-2.8,1.6-6,2.3-9.7,2.3c-3,0-5.5-0.6-7.5-1.8c-2.1-1.2-3.7-2.9-4.9-5
		c-1.2-2.1-1.8-4.4-1.8-6.9c0-3.9,1.4-7.2,4.1-9.9c2.8-2.7,6.2-4,10.2-4c2.8,0,5.9,0.7,9.3,2.2v4.2c-3.1-1.8-6.1-2.7-9.1-2.7
		c-3,0-5.6,1-7.6,2.9c-2,2-3,4.4-3,7.3c0,3,1,5.4,3,7.3c2,1.9,4.5,2.9,7.6,2.9C119.8,59.6,122.9,58.6,126,56.6L126,56.6z"/>
</g>
<g>
	<path fill="#FFFFFF" d="M172.7,31h5.2v38.3h-4.7l-25.6-29.5v29.5h-5.1V31h4.4l25.8,29.7V31z"/>
	<path fill="#FFFFFF" d="M186.1,31h21.7v4.9h-16.2v11.7h15.7v4.9h-15.7v11.9h16.7v4.9h-22.2V31z"/>
	<path fill="#FFFFFF" d="M262.9,31h5.5l-15.5,38.4h-1.2l-12.5-31.1l-12.6,31.1h-1.2L209.9,31h5.5L226,57.4L236.6,31h5.2l10.7,26.4
		L262.9,31z"/>
	<path fill="#FFFFFF" d="M282,53.3l-4.2-2.5c-2.6-1.6-4.5-3.2-5.6-4.7c-1.1-1.5-1.7-3.3-1.7-5.3c0-3,1-5.5,3.1-7.3
		c2.1-1.9,4.8-2.8,8.1-2.8c3.2,0,6.1,0.9,8.8,2.7v6.2c-2.8-2.7-5.7-4-8.9-4c-1.8,0-3.3,0.4-4.4,1.2c-1.2,0.8-1.7,1.9-1.7,3.2
		c0,1.1,0.4,2.2,1.3,3.2c0.8,1,2.2,2.1,4.1,3.2l4.2,2.5c4.7,2.8,7,6.3,7,10.6c0,3.1-1,5.6-3.1,7.5c-2.1,1.9-4.7,2.9-8,2.9
		c-3.8,0-7.2-1.2-10.3-3.5v-7c3,3.7,6.4,5.6,10.3,5.6c1.7,0,3.1-0.5,4.3-1.4c1.1-1,1.7-2.2,1.7-3.6C287.1,57.6,285.4,55.4,282,53.3z
		"/>
</g>
</svg>
