<?xml version="1.0" encoding="utf-8"?>
<!-- Generator: Adobe Illustrator 18.1.1, SVG Export Plug-In . SVG Version: 6.00 Build 0)  -->
<svg version="1.1" id="Layer_1" xmlns="http://www.w3.org/2000/svg" xmlns:xlink="http://www.w3.org/1999/xlink" x="0px" y="0px"
	 viewBox="0 0 300 100" enable-background="new 0 0 300 100" xml:space="preserve">
<g>
	<rect x="109.1" y="18.9" fill="#900D0C" width="72.9" height="55.7"/>
	<g>
		<rect x="128.5" y="30.9" fill-rule="evenodd" clip-rule="evenodd" fill="#FFFFFF" width="10.3" height="10.5"/>
		<rect x="140.4" y="30.9" fill-rule="evenodd" clip-rule="evenodd" fill="#FFFFFF" width="10.3" height="10.5"/>
		<rect x="152.3" y="30.9" fill-rule="evenodd" clip-rule="evenodd" fill="#FFFFFF" width="10.3" height="10.5"/>
		<path fill="#900D0C" d="M133.8,39.8h-2.5v-7.5h1.9c0.6,0,1.1,0.1,1.4,0.2c0.3,0.2,0.6,0.4,0.8,0.7c0.2,0.3,0.3,0.6,0.3,1
			c0,0.7-0.4,1.3-1.1,1.6c0.5,0.1,1,0.3,1.3,0.7c0.3,0.3,0.5,0.8,0.5,1.2c0,0.4-0.1,0.7-0.3,1c-0.2,0.3-0.5,0.5-0.8,0.7
			C134.8,39.7,134.3,39.8,133.8,39.8L133.8,39.8z M133.2,33.3h-0.9v2.2h0.7c0.6,0,1-0.1,1.2-0.3c0.2-0.2,0.4-0.5,0.4-0.8
			C134.6,33.7,134.1,33.3,133.2,33.3L133.2,33.3z M133.3,36.5h-1v2.4h1c0.6,0,1,0,1.2-0.1c0.2-0.1,0.4-0.2,0.5-0.4
			c0.1-0.2,0.2-0.4,0.2-0.6c0-0.2-0.1-0.4-0.2-0.6c-0.1-0.2-0.3-0.3-0.6-0.4C134.2,36.5,133.8,36.5,133.3,36.5L133.3,36.5z"/>
		<path fill="#900D0C" d="M145.7,39.8h-2.5v-7.5h1.9c0.6,0,1.1,0.1,1.4,0.2c0.3,0.2,0.6,0.4,0.8,0.7c0.2,0.3,0.3,0.6,0.3,1
			c0,0.7-0.4,1.3-1.1,1.6c0.5,0.1,1,0.3,1.3,0.7c0.3,0.3,0.5,0.8,0.5,1.2c0,0.4-0.1,0.7-0.3,1c-0.2,0.3-0.5,0.5-0.8,0.7
			C146.7,39.7,146.2,39.8,145.7,39.8L145.7,39.8z M145.1,33.3h-0.9v2.2h0.7c0.6,0,1-0.1,1.2-0.3c0.2-0.2,0.4-0.5,0.4-0.8
			C146.5,33.7,146,33.3,145.1,33.3L145.1,33.3z M145.2,36.5h-1v2.4h1c0.6,0,1,0,1.2-0.1c0.2-0.1,0.4-0.2,0.5-0.4
			c0.1-0.2,0.2-0.4,0.2-0.6c0-0.2-0.1-0.4-0.2-0.6c-0.1-0.2-0.3-0.3-0.6-0.4C146.1,36.5,145.7,36.5,145.2,36.5L145.2,36.5z"/>
		<path fill="#900D0C" d="M160.5,38.1v1.2c-0.8,0.4-1.7,0.6-2.7,0.6c-0.8,0-1.5-0.2-2.1-0.5c-0.6-0.3-1-0.8-1.4-1.4
			c-0.3-0.6-0.5-1.2-0.5-1.9c0-1.1,0.4-2,1.1-2.7c0.8-0.7,1.7-1.1,2.8-1.1c0.8,0,1.6,0.2,2.6,0.6V34c-0.9-0.5-1.7-0.7-2.5-0.7
			c-0.8,0-1.5,0.3-2.1,0.8c-0.6,0.5-0.8,1.2-0.8,2c0,0.8,0.3,1.5,0.8,2c0.5,0.5,1.2,0.8,2.1,0.8C158.8,38.9,159.6,38.6,160.5,38.1
			L160.5,38.1z"/>
	</g>
	<g>
		<path fill="#FFFFFF" d="M130,46.4h1.9v13.7h-1.7l-9.1-10.5v10.5h-1.8V46.4h1.6L130,57V46.4z"/>
		<path fill="#FFFFFF" d="M134.8,46.4h7.8v1.7h-5.8v4.2h5.6v1.8h-5.6v4.2h6v1.7h-7.9V46.4z"/>
		<path fill="#FFFFFF" d="M162.3,46.4h2l-5.5,13.7h-0.4L153.8,49l-4.5,11.1h-0.4l-5.5-13.7h2l3.8,9.4l3.8-9.4h1.9l3.8,9.4
			L162.3,46.4z"/>
		<path fill="#FFFFFF" d="M169.1,54.3l-1.5-0.9c-0.9-0.6-1.6-1.1-2-1.7c-0.4-0.6-0.6-1.2-0.6-1.9c0-1.1,0.4-2,1.1-2.6
			c0.7-0.7,1.7-1,2.9-1c1.1,0,2.2,0.3,3.1,1v2.2c-1-0.9-2-1.4-3.2-1.4c-0.6,0-1.2,0.1-1.6,0.4c-0.4,0.3-0.6,0.7-0.6,1.1
			c0,0.4,0.2,0.8,0.5,1.2c0.3,0.4,0.8,0.7,1.5,1.1l1.5,0.9c1.7,1,2.5,2.3,2.5,3.8c0,1.1-0.4,2-1.1,2.7c-0.7,0.7-1.7,1-2.9,1
			c-1.4,0-2.6-0.4-3.7-1.2v-2.5c1.1,1.3,2.3,2,3.7,2c0.6,0,1.1-0.2,1.5-0.5c0.4-0.3,0.6-0.8,0.6-1.3
			C170.9,55.9,170.3,55.1,169.1,54.3z"/>
	</g>
</g>
</svg>
