<?xml version="1.0" encoding="utf-8"?>
<!-- Generator: Adobe Illustrator 18.1.1, SVG Export Plug-In . SVG Version: 6.00 Build 0)  -->
<svg version="1.1" id="Layer_1" xmlns="http://www.w3.org/2000/svg" xmlns:xlink="http://www.w3.org/1999/xlink" x="0px" y="0px"
	 viewBox="0 0 300 100" enable-background="new 0 0 300 100" xml:space="preserve">
<path d="M152,54.5l0.6,0.5c-0.1-0.7,0-1.9,0-1.9c-0.5,0.3-0.6,0.9-0.6,0.9l-0.7,0.1L152,54.5L152,54.5z M178.6,59.8
	c-0.1-0.2-0.2-0.3-0.4-0.3c-0.2,0-0.4,0.2-0.4,0.5c0,0.3,0.2,0.5,0.4,0.5c0.2,0,0.4-0.2,0.4-0.5C178.6,59.9,178.6,59.8,178.6,59.8
	L178.6,59.8z M178.5,57.8c0,0,0,0.1,0,0.1c0,0.2-0.1,0.4-0.3,0.5V59c0.2,0,0.4,0.1,0.6,0.3c0.1,0.2,0.2,0.4,0.2,0.6
	c0,0.4-0.3,0.8-0.6,0.9c1-0.1,1.6-0.2,1.6-0.2c-1-0.2-0.4-0.8-0.4-0.8c0.4-0.4,1.3-0.6,1.3-0.6c-1-0.1-1.6-0.9-1.8-1.4L178.5,57.8
	L178.5,57.8z M178,60.9c-0.4-0.1-0.7-0.4-0.7-0.9c0-0.5,0.3-0.8,0.6-0.9v-0.6c-0.2,0-0.4-0.2-0.4-0.4h0c-0.4,0.1-0.8,0.1-0.8,0.1
	c-0.1,0.2,0.1,0.3,0.1,0.3c0.9,0.6,0.3,1.2,0.3,1.2c-0.4,0.4-0.6,0.4-0.6,0.4c-0.4,0.1-1.4,1-1.4,1C176.2,61,177.2,60.9,178,60.9
	L178,60.9z M166.9,57.1c0.1,0,0.1,0,0.2-0.1l0.8,0.3c0,0.2,0.2,0.4,0.4,0.4c0.1,0,0.2-0.1,0.3-0.2l0.7,0.1c0,0.2,0.2,0.3,0.3,0.3
	c0.2,0,0.4-0.2,0.4-0.4l0.6-0.3c0.1,0.1,0.2,0.2,0.3,0.2c0.2,0,0.4-0.2,0.4-0.4l0.4-0.6c1,0.1,2.1,0,2.1,0c1.1-0.6,2-0.9,2-0.9
	c-0.3,0.2-0.6,0.4-0.9,0.7c-0.4,0.4-0.6,0.6-0.6,0.6c-0.4,0.3-0.4,0.6-0.4,0.9c0,0.4,0.2,0.7,0.2,0.7c0.2,0.2,0.5,0.4,0.5,0.4
	l0.4,0.4c-0.4,0.3-1.2,0.5-1.2,0.5c-0.4,0.2-1.1-0.1-1.1-0.1c-1.4-0.3-1.9,0.3-1.9,0.3c-0.3,0.3-0.8,0.4-0.8,0.4l0.2,0.4
	c-0.5,0.2-0.8,0-0.8,0c0-0.7,0.3-1.4,0.3-1.4c-0.2-1.1-2.4-0.9-2.4-0.9l-0.6-0.5l-0.1-0.1l-1.3-1.2c0,0.4-0.2,0.9-0.4,1.3
	c-0.2,0.4-0.4,0.7-0.4,0.7l-0.5-0.2c0.1-0.1,0.2-0.3,0.2-0.4c0.4-1,0.7-2.3,0.7-2.3c0.2,0,0.4,0,0.6,0.1c0.1,0.1,0.2,0.1,0.2,0.1
	c0.1,0,0.2,0.1,0.3,0.1l0.4,0.6c0,0.1-0.1,0.2-0.1,0.2C166.6,57,166.7,57.1,166.9,57.1L166.9,57.1z M171.5,56.5l-0.2,0.3
	c-0.1-0.1-0.2-0.2-0.3-0.2c-0.2,0-0.4,0.2-0.4,0.5c0,0,0,0.1,0,0.1l-0.5,0.2c-0.1-0.2-0.2-0.4-0.4-0.4c-0.2,0-0.4,0.2-0.4,0.5
	l-0.6-0.1c0,0,0-0.1,0-0.1c0-0.2-0.2-0.5-0.4-0.5c-0.2,0-0.3,0.1-0.3,0.3l-0.7-0.3c0-0.1,0-0.1,0-0.2c0-0.2-0.2-0.4-0.4-0.4
	c0,0-0.1,0-0.1,0l-0.2-0.3l0,0c1,0.3,2.3,0.6,2.3,0.6h0.9l0.3-0.4C170.5,56.3,171,56.4,171.5,56.5L171.5,56.5z M166.6,49.6
	c0,0,0.1,0.1,0.1,0.1l0,0.1c0,0-0.1,0-0.1,0c-0.2,0-0.3,0.2-0.3,0.3l0,0l-0.3-0.4l-0.1-0.1l-0.7-0.8c-0.9-1.1-2.1,0-2.1,0l-0.2-0.2
	c0.7-0.4,0.1-0.9,0.1-0.9l1.3-3.4l-0.4-0.4c0.6-1.3-0.7-1.4-0.7-1.4c-0.4-1.2-1.1-0.6-1.1-0.6c-0.2-1.2-1.1-0.6-1.1-0.6
	c-0.3-0.8-1.1-0.3-1.1-0.3l0-1.9l-0.9,0l-1,0l0.1,1.9c-1-0.5-1.1,0.5-1.1,0.5c-1.1-0.6-1.1,0.6-1.1,0.6c-0.9-0.3-0.9,0.6-0.9,0.6
	c-1.3,0.1-1.1,1.2-1.1,1.2l1,3.3c-0.2,0.6-3.1,4.1-3.1,4.1l-1.2-0.4l-0.1-0.2c0.3,0.2,0.5,0.1,0.5,0.1c-0.1-0.4,0-1.2,0-1.2
	c0.4-1.6-0.3-2.1-0.3-2.1c0-0.6-0.4-1.4-0.4-1.4c0.6-0.8-0.3-1.5-0.3-1.5l-0.1-0.2l0-1.7c-0.2,0-0.2-0.2-0.2-0.2
	c-0.2-0.7-0.7-0.2-0.7-0.2c-0.3-0.7-0.9-0.2-0.9-0.2c-0.4-0.6-0.9,0-0.9,0l-0.4-1.2l-1.2,0.5l0.4,1.3c-0.9-0.2-0.6,0.7-0.6,0.7
	c-0.8,0-0.4,0.7-0.4,0.7c-0.7,0.1-0.4,0.9-0.4,0.9l0.8,1.3c-0.6,0.7,0,1.2,0,1.2c0.2,0.4,0.4,0.4,0.4,0.4c-0.4,1.1,0.1,2.2,0.1,2.2
	c-0.5,0.6-1.3,1.1-2,1.5c-1,0.5-1.9,0.7-1.9,0.7c-1.6,0.4-4.7,1.4-4.7,1.4c-1.1,0.3-2.8,0.8-2.8,0.8c-2.2,0.6-2.8,0-2.8,0
	c-0.5-0.3-0.1-1.2-0.1-1.2c0.5-1.1,1.6-1.3,1.6-1.3c0.8,0.5,1.1,0.8,1.1,0.8c0.5,0.5,1.3,0.4,1.3,0.4l0-0.2c0.4,0,0.6-0.1,0.6-0.1
	c-0.2-0.2-0.2-0.5-0.2-0.5c0-0.2-0.3-0.5-0.3-0.5l5.6-0.2c0.2,0,0.4,0,0.5-0.1c1.9-0.4,2.4-0.8,2.4-0.8c1.3-1.1,0.8-2.8,0.8-2.8
	c-0.7-1.7-2.1-1.8-2.1-1.8c-1.1-0.3-1.9-0.1-1.9-0.1c-0.6,0-1.9-0.3-1.9-0.3c0,0.2,0.5,1,0.5,1c-0.6,0-1-0.3-1-0.3
	c-0.6-0.6-1.7-0.3-1.7-0.3c0.2,0.3,1.1,1.1,1.1,1.1c-0.6,0-2.1-0.6-2.1-0.6c0.3,1.3,1.8,2.3,1.8,2.3c1.8,0.8,3.4,0,3.4,0
	c0.8-0.5,1.5-0.8,1.5-0.8c1-0.3,1.2,0.6,1.2,0.6c-0.1,1.4-1.1,1.4-1.1,1.4c-2.9,0.6-6.8,0.2-6.8,0.2c0.3-0.4,0.3-1.3,0.3-1.3
	l-0.3,0.1c-1.7-0.2-2.1,0.2-2.1,0.2c-0.6,0.4-0.9,1.1-0.9,1.1c-0.8,0.3-1.4,0.7-1.8,1.1c-1.1,1.1-1.3,2.3-1.3,2.3
	c-0.1,1.5,0.7,1.7,0.7,1.7c-0.7,1.4,0.4,1.9,0.4,1.9c0.5-0.4,0.7-0.8,0.7-0.8c1-0.7,3.8-1.3,3.8-1.3c-0.6,0.4-0.9,1.8-0.9,1.8
	c-0.5,0.2-1.3-0.1-1.3-0.1c-0.4,0-0.4,0.3-0.4,0.3l-0.2,0.5l-0.3,0.9c-1.7-0.1-1.5,0.9-1.5,0.9l-0.2,2.7c0.4,1,1.1,0.9,1.1,0.9v-1
	h0.4c0.5,1.1,1.3,1.3,1.3,1.3h0.2c0.3-0.1,0.4,0.3,0.4,0.3l0.3,0l0-0.7l0.3,0c0.2,0.1,0.3,0.4,0.3,0.4h0.2c0.1-0.2,0.1-0.6,0.1-0.6
	c0.3-0.2,0.2-0.9,0.2-0.9c0.6-0.1,1.3,0.1,1.3,0.1l0,0.6c0.5,0.8,1.1,0.9,1.1,0.9c0.4,0.1,1,0.2,1.7,0.2c1.3,0.1,2.8,0,4.3,0
	c2.5-0.1,4.7-0.4,4.7-0.4c0.2,0.2,0.2,0.2,0.2,0.2c0.7,0.2,1.5-0.5,1.5-0.5l-0.2,0.5c0.5,0,1.1-0.4,1.1-0.4c0.2,0.3,0.6,0.4,0.6,0.4
	l0.1-0.1l0.2,0.2c0.3-0.2,0.5-0.7,0.5-0.7c0.4,0.3,0.9,0.2,0.9,0.2l0.2,0.2l0.1-0.2c0.2,0.2,0.7,0.4,0.7,0.4
	c0.5-0.6,0.3-1.5,0.3-1.5l0.1,0.2L155,62c0.2,0.2,0.6,0.2,0.6,0.2c-0.8,0.3-0.3,0.9-0.3,0.9c0.1,0.2,0.4,0.4,0.4,0.4
	c0.5,0,0.6,0.4,0.6,0.4c0.6,0.3,1-0.4,1-0.4l0.1-0.5c-0.1-0.3-0.1-0.7-0.1-0.7l0.1,0.5l0.2,0.1l1.4,1.1l1.2-1
	c0.6,0.4,1.5,0.4,1.5,0.4c0.3,0,0.1-0.4,0.1-0.4c1.1,0.9,2.6,0.6,2.6,0.6c0.2-0.2,0.1-0.3,0.1-0.3c0.3-0.1,0.8,0.3,0.8,0.3
	c0.4,0.3,1,0,1,0c0-0.2-0.2-0.2-0.2-0.2c0.3,0,0.1-0.4,0.1-0.4c0.3,0,0.5,0.4,0.5,0.4c0.2,0.3,0.7,0.2,0.7,0.2l0-0.2
	c0.3,0.2,0.9,0.2,0.9,0.2c0.2-0.2,0-0.4,0-0.4c2.9,0.9,7.3,0.7,7.3,0.7c5.6,0,6.4-1.1,6.4-1.1c0.2-0.2,0.1-0.5,0.1-0.5v-0.3
	c0.3-0.2,0.7,0,0.7,0l-0.4,0.9l-0.1,0.3c1,1.1,2.4-0.1,2.4-0.1v-0.4c0.3-0.1,0.5-0.4,0.5-0.4l0.6,0.2c0.1,0.4-0.2,0.8-0.2,0.8
	c1,0.3,1.4-0.8,1.4-0.8l-0.5-2.7c-0.8-0.9-2.3-0.8-2.3-0.8l0-0.7c-0.1-0.2-0.4-0.4-0.6-0.4l-0.3-0.1l-0.3,0.1c-0.4,0-1.1,0-1.1,0v0
	l0.1-0.9v-1.1l-0.1-0.4l0.9,0.1c0.6,0.3,2.1,0.3,2.1,0.3c0.5,0.2,0.5,0.7,0.5,0.7l-0.2,0.6c1.4-0.1,1.2-1.7,1.2-1.7
	c1-0.8,0.7-3,0.7-3c-0.1-0.5-0.3-0.9-0.4-1c0,0,0,0,0,0c0-1.4-1.4-2-1.4-2c-0.2-0.2-0.5-0.2-0.5-0.2c-0.3-0.1-0.8-0.6-0.8-0.6
	c-0.5,1-0.1,1.7-0.1,1.7c-0.8-0.2-4.9,0.6-4.9,0.6c-1,0.2-2.6-0.3-2.6-0.3c-1-0.6-0.9-1.3-0.9-1.3c0.2-1.2,1.2-1,1.2-1
	c0.2,0,0.3,0,0.3,0c0.9-0.2,1.5,0.2,1.5,0.2c1.7,0.8,4.7,0,4.7,0c1.5-0.6,1.9-2.5,1.9-2.5c-1,0.9-1.9,0.7-1.9,0.7
	c-0.2,0-0.6,0.2-0.6,0.2c0.2-0.7,1-1,1-1c-1.1-0.4-2.2,0.3-2.2,0.3c-0.6,0.6-1.8,0.8-1.8,0.8c0.9-0.4,1.4-1.4,1.4-1.4
	c-0.6,0.4-1.7,0.3-1.7,0.3c-1.7-0.3-3.5,1.2-3.5,1.2c-1.7,1.5-0.9,3.2-0.9,3.2c0.2,0.5,0.7,0.9,1.2,1.1c0.8,0.4,1.6,0.4,1.6,0.4
	c1.7,0.2,5.3-0.2,5.3-0.2c0.3-0.1,0.7-0.1,0.7-0.1c-0.6,0.5-0.8,1.6-0.8,1.6c0.6-0.2,1.1-0.2,1.1-0.2l0,0.2c0.8-0.1,1.4,0,1.4,0
	c0.4,0,0.5-0.3,0.5-0.3c0.5,0.7-0.5,1.5-0.5,1.5c-0.6,0.6-1.8,0.1-1.8,0.1c-0.7-0.3-2.5-0.4-2.5-0.4c-0.3-0.4-4-1.1-4-1.1
	c-0.2-0.4-0.6-0.2-0.6-0.2l-0.3,0c-0.3-0.8-1.1-0.3-1.1-0.3c-0.5-0.1-1.4-0.6-1.9-0.9c-0.2-0.1-0.4-0.2-0.4-0.2
	c1.9-2.1,1.8-4.5,1.8-4.5c-0.2-3.3-3-3.9-3-3.9c-0.4-1-1.7-1.1-1.7-1.1l-0.1,0.2l0.1,0.3c0,0.2,0.2,0.6,0.2,0.6l-0.5,0.1l-3.3-1.9
	c-0.8-0.2-0.5,0.5-0.5,0.5l0.2,0.2l2.8,2.2c-0.3,0.6-1.3,1.3-1.3,1.3l-0.4,0.1l-0.4,0.5l0,0.6c-0.2,0.2-0.6,0.2-0.6,0.2l0,0.4
	c0.3,0.4,1.1,0.4,1.1,0.4l0.6,0.6c0.2,0.1,0.4,0,0.4,0l0.6-0.6l0.8-0.4c0.2,0.1,0.6,0.2,0.6,0.2c-0.5,0.2-1.1,1-1.1,1
	c-0.4-0.1-1.2,0-1.2,0l-0.1,0.4l0,0.1l-0.2-0.1c-0.3-1.2-1.2-0.4-1.2-0.4C166.3,48.9,166.5,49.4,166.6,49.6L166.6,49.6z M166.7,50.4
	c0.1,0,0.2-0.2,0.2-0.3c0,0,0-0.1,0-0.1l0.1-0.1c0.2,0.1,0.3,0.2,0.4,0.2c0.4,0,0.6-0.6,0.6-0.6h0.1l-0.1,0.5
	c-0.4,0.2-0.8,1.1-0.8,1.1L166.7,50.4L166.7,50.4z M166.9,49.3c-0.2-0.5,0.2-0.7,0.2-0.7c0.6-0.1,0.4,0.6,0.4,0.6
	c-0.2,0.2-0.3,0.3-0.4,0.3C167,49.5,166.9,49.3,166.9,49.3L166.9,49.3z M144.8,57.8c-0.3,0.3-0.9,0.7-1.6,0.7l-0.3,0.5l0.8,0.2
	l0.2,0.1l0.7,0.2c0,0,0-0.4,0.6-0.4c0,0,0.4-1,1.8-0.7c0,0,0.2-0.1,0.6,0.1c0.1,0.1,0.2,0.2,0.4,0.3l-0.2-0.5c0,0,0.2-0.2,0.6-0.2
	c0,0-0.2-0.2-0.3-0.4c-0.2-0.2-0.3-0.5-0.3-0.8c0,0,0.5-0.2,1-0.1v-0.4h0.3l-0.5-0.3c0,0-1.3,1.5-3.9,0.8c-0.4-0.1-0.9-0.3-1.4-0.6
	c0,0,0.5,1.2,2,1.2C145.1,57.4,145,57.6,144.8,57.8L144.8,57.8z M138.3,57.8c0.8,0.2,2.2,0.4,2.2,0.4c-0.1,0.1-0.2,0.2-0.4,0.3
	c-0.4,0.4-0.8,0.4-0.8,0.4c-0.2,0.4-0.1,1.1-0.1,1.1c0.1,0.2,0.5,0.3,0.8,0.4c0.4,0.2,0.8,0.3,0.8,0.3c-0.5,0.1-1.1,0.1-1.5,0
	c-0.4,0-0.7-0.2-0.7-0.2l0.2-0.4c-0.2-1.1-1.7-1.2-1.7-1.2l0.1-0.5c0.2-0.2,0.4-0.5,0.5-0.7c0.1-0.1,0.1-0.2,0.1-0.2
	C137.8,57.7,138,57.7,138.3,57.8L138.3,57.8L138.3,57.8L138.3,57.8L138.3,57.8L138.3,57.8L138.3,57.8L138.3,57.8L138.3,57.8
	L138.3,57.8L138.3,57.8L138.3,57.8L138.3,57.8L138.3,57.8L138.3,57.8L138.3,57.8L138.3,57.8z M167.1,61.2c-0.1,0.1-0.2,0.2-0.2,0.3
	c0,0,0.1,0.2,0.6,0.4c0,0,0.1-0.4,0-0.9C167.5,61,167.3,61.1,167.1,61.2L167.1,61.2z M148.7,60.4l0.3-0.1c0,0-0.3-0.2-0.3-0.4
	c0,0,0-0.3-0.4-0.6l0,0.3V60l0.1,0.1v0.3L148.7,60.4L148.7,60.4z M149.9,61.9l0,0.6l0.5-0.6c-0.1,0-0.2,0-0.2-0.1
	c-0.2-0.2-0.3-0.4-0.3-0.4L149.9,61.9L149.9,61.9z M151.8,57.8c0.3,0,0.6,0,0.7,0.2c0-0.3,0.1-0.5,0.5-0.6c0,0-0.9-0.2-1.6-0.4
	c-0.5-0.2-1-0.4-1.1-0.6l-0.4,0.1l-0.3,0.1v0.1c0,0,0.8,0.1,1.2,0.4V57C150.8,57,151.5,57.1,151.8,57.8L151.8,57.8z M153.9,59.4
	c0-0.1,0-0.2,0-0.3l0.6,0.7c0,0,0.1,0.4-0.1,0.6c0,0-0.1-0.1-0.3-0.2c-0.1,0-0.2-0.1-0.3-0.1l0-0.5
	C153.8,59.6,153.9,59.6,153.9,59.4L153.9,59.4z"/>
<path d="M104.6,37.3c0,0,6,3.1,6.8,3.7c0.8,0.6,0.4,1,0.4,1s-0.3,0.4-1,0.6c-0.7,0.1-0.5,0.7-0.5,0.7l-0.1,14.4
	c2.8,2.8,5.5,1.3,5.5,1.3c1-0.3,0.9-1.2,0.9-1.2s0.2-13.5,0.1-14c-0.1-0.5-0.5-0.5-0.5-0.5s-2.5-1.6-2.9-1.9c-0.4-0.3,0-0.7,0-0.7
	s4.3-3,4.9-3.5c0.6-0.5,1.1-0.2,1.1-0.2s7,3.9,7.8,4.5c0.8,0.6,0.4,0.8,0.4,0.8s-1.6,1.6-2,2c-0.4,0.4-0.2,0.8-0.2,0.8l-0.1,13.3
	c-0.5,3.4-5.9,3.9-5.9,3.9c-6.4,0.1-9.4-2.7-9.4-2.7c-2.6-1.6-5.5-0.5-5.5-0.5c-3.8,1.3-4.1,3.7-4.1,3.7c-0.1,1.7,1.8,2.6,1.8,2.6
	c2.4,1.5,5.9,0.6,5.9,0.6c3-1,7.5-2.6,7.5-2.6c2.9-0.6,5.1-0.1,5.1-0.1c2.6,0.6,3.6,1.8,3.6,1.8c1.7,1.7,1.5,3.9,1.5,3.9
	c0.1,4.8-5.8,6.4-5.8,6.4c-2.6,0.5-3.4-0.1-3.4-0.1c-1.9-0.4,0.1-0.6,0.1-0.6s-3.4,0.2,0.3,0c3.7-0.1,4.1-1.9,4.1-1.9
	c1.3-2.4-0.7-2.8-0.7-2.8c-2.8-0.4-5.9,1.9-5.9,1.9c-6.9,3.1-12.1,0.5-12.1,0.5c-5.3-2.1-4.7-6-4.7-6c0.1-5.1,3.4-7.2,3.4-7.2
	l-0.2-15.9c-0.2-0.4-0.6-0.5-0.6-0.5s-2.2-0.9-2.6-1.4c-0.3-0.5,0.2-0.7,0.2-0.7l5.1-3.4C103.9,36.5,104.6,37.3,104.6,37.3
	L104.6,37.3z M4.8,34.9c-0.8-0.5,0.1-0.8,0.1-0.8l7.7-5.7h20.5c4.4,0.4,4.1,6.1,4.1,6.1l-0.1,20.9c-7.2,1.4-10.6,7.5-10.6,7.5
	c-6.7-1.9-18.2-0.2-18.2-0.2c-1,0.1-0.3-0.7-0.3-0.7c4-7,11.6-6.8,11.6-6.8c0.5,0,1,0,1.4,0l0-20.1L4.8,34.9L4.8,34.9z M15,36
	c1.5-0.7,1.2,0.3,1.2,0.3V48c-0.1,4.9-4,7.6-4,7.6c-1.1,1.5-5.5,3.3-5.5,3.3C5.3,59.4,6.2,58,6.2,58c1.4-2.1,1.4-3.6,1.4-3.6v-14
	c0-0.4,0.2-0.6,0.2-0.6L15,36L15,36z M21.7,55.3c3.5,0.4,6.1,1.6,6.1,1.6l-0.1-9l-0.1,0c0,0-2.8-3.8-6,0.1L21.7,55.3L21.7,55.3z
	 M27.8,47l0-3.8c-1.1,1-3.6,2.7-6-0.4l0,4.3C24.4,44.3,26.8,46,27.8,47L27.8,47z M27.7,42.2l0-6.3c0.3-1.1-1.2-0.8-1.2-0.8l-4.8-0.1
	l0,6.5C24.4,46.1,27.5,42.6,27.7,42.2L27.7,42.2z M83.7,32.4c0,0,8.9-2.9,10-3.2c1.2-0.3,1.1,0.3,1.1,0.3s-0.2,25.4,0,26.3
	c0.2,0.9,0.6,0.6,0.6,0.6s2.1,1.5,2.5,1.7c0.5,0.2,0.2,0.7,0.2,0.7l-5,3.9c0,0-8.2-3.6-8.8-4c-0.8-0.6-0.3-0.9-0.3-0.9l1.5-1.5
	c0,0,0.2-20.7-0.2-21.8c-0.4-1.1-1.7-1.5-1.7-1.5C83.3,32.4,83.7,32.4,83.7,32.4L83.7,32.4z M73.6,36.7c0.3,0.7,1,0.6,1,0.6
	c3.2-1.3,4.5-4.4,4.5-4.4c0.8-3-1.1-3.8-1.1-3.8c-1.7-1-3-0.2-3-0.2c-1.9,1.1-2.5,3.1-2.5,3.1C72.2,34.5,73.6,36.7,73.6,36.7
	L73.6,36.7z M72.2,38c0,0-5.3,3.2-5.7,3.9s-0.1,0.9-0.1,0.9s2.3,1.4,2.9,1.7c0.6,0.2,0.4,0.5,0.4,0.5l0.2,10.5c0.1,0.3,0,1,0,1
	s-0.9,0.7-1.4,1.1c-0.6,0.5-0.1,1-0.1,1l8.1,4.1c0,0,5.5-4,6-4.2c0.5-0.2,0-0.6,0-0.6s-2.4-1.4-2.8-1.6c-0.4-0.2-0.2-0.6-0.2-0.6
	s-0.3-10.4-0.1-11.3c0.2-0.9,0.5-0.6,0.5-0.6s0.7-0.2,1.4-0.6c0.6-0.4,0-0.8,0-0.8s-7.6-4-8.1-4.5C72.6,37.5,72.2,38,72.2,38
	L72.2,38z M38.6,55.6c0-0.1,0.6,6.1,8.6,7.1l5.3-4.3c0,0,0.3-0.5,0.7-0.1l8.9,4.3l5.4-4.3c0,0,0.2-0.5-0.2-1L63.6,55V44.6
	c0,0,0-0.5,0.3-0.6l1.5-1.2c0,0,0.2-0.4-0.2-0.9c-0.4-0.6-9.3-4.9-9.3-4.9s-0.3-0.5-1.1,0.1c0,0-9.7,3.9-13.5,8.9
	C41.1,46,38.1,47.9,38.6,55.6L38.6,55.6z M46.2,52.3c0.2,0.4-1.6-2.6-0.7-6c0,0,0.1-3,3.6-4.5l4.7,3l-0.1,12c0,0-0.6,1-2.1,0.3
	C51.5,57.2,47.7,55.3,46.2,52.3L46.2,52.3z"/>
<path d="M269.5,38.4c0,0-5.3,3.2-5.7,3.8c-0.4,0.6-0.1,0.9-0.1,0.9s2.3,1.4,2.9,1.6c0.6,0.2,0.4,0.6,0.4,0.6l0.2,10.5
	c0.1,0.3,0,1,0,1s-0.9,0.7-1.4,1.1c-0.6,0.5-0.1,1-0.1,1l8.1,4.1c0,0,5.5-4,6-4.2c0.5-0.2,0-0.6,0-0.6s-2.3-1.4-2.8-1.6
	c-0.4-0.2-0.2-0.6-0.2-0.6s-0.3-10.4-0.1-11.3c0.2-0.8,0.5-0.6,0.5-0.6s0.7-0.2,1.4-0.6c0.6-0.4,0-0.7,0-0.7s-7.6-4-8.1-4.5
	C270,37.9,269.5,38.4,269.5,38.4L269.5,38.4z M189,34.9c-1.3-0.7-0.4-1-0.4-1l6.3-4.1c0.3-0.3,0.6,0.1,0.6,0.1l5.8,3.4
	c0,0,7.8-4.1,8.3-4.5c0.3-0.2,0.6,0.1,0.6,0.1l6.6,3.6l6.6-4.1c0.7-0.6,0.9-0.2,0.9-0.2l7.7,4.5c0.6,0.4,0.4,0.5,0.4,0.5v21
	c0.3,2.6,2.5,3.6,2.5,3.6c0.6,0.5,0.3,0.9,0.3,0.9l-6,4.3c-5.1-1.7-5.6-5.9-5.6-5.9V37.1c-0.1-0.7-0.6-0.9-0.6-0.9l-4-2l0,8.9h4.3
	l-4.3,6.1l0,7.4l3,2c0.4,0.5-0.2,0.6-0.2,0.6l-6.2,3.8l-9.2-4.9c-0.9-0.6-0.2-0.9-0.2-0.9l2-1.3v-6.4h-4.4l0,8.3l1.5,0.9
	c0.4,0.5-0.1,0.8-0.1,0.8l-6.1,3.4l-8-4.2c-0.7-0.4,0-0.8,0-0.8l2.3-1.3V38.2l-4.4-3.2L189,34.9L189,34.9z M218.5,33.9
	c-1.2-0.4-1,0.4-1,0.4l0.1,8.1v0.6h1L218.5,33.9L218.5,33.9z M218.5,49.6h-1v6c0,0.2,0.5,0.4,0.5,0.4l0.5,0.3L218.5,49.6L218.5,49.6
	z M203.9,48.4l3.6-5.3h0.8v-6c-0.1-0.3-0.6-0.6-0.6-0.6l-3.8-2L203.9,48.4L203.9,48.4z M203.4,34.3c-1.1,0-1.2,0.8-1.2,0.8
	l-0.1,21.6c0,0.1,0.4,0.2,0.4,0.2l0.9,0.6L203.4,34.3L203.4,34.3z M236,55.6c0-0.1,0.6,6.1,8.6,7.1l5.3-4.3c0,0,0.3-0.5,0.7-0.1
	l8.9,4.3l5.4-4.3c0,0,0.2-0.5-0.2-1l-3.8-2.5V44.6c0,0,0-0.5,0.3-0.6l1.5-1.2c0,0,0.2-0.4-0.2-0.9c-0.4-0.6-9.3-4.9-9.3-4.9
	s-0.3-0.5-1.1,0.1c0,0-9.7,3.9-13.5,8.9C238.5,46,235.4,47.9,236,55.6L236,55.6z M243.6,52.3c0.2,0.4-1.6-2.6-0.7-6
	c0,0,0.1-3,3.6-4.5l4.7,3l-0.1,12c0,0-0.6,1-2.1,0.3C248.9,57.2,245,55.3,243.6,52.3L243.6,52.3z M281,32.4c0,0,8.9-2.9,10-3.2
	c1.1-0.3,1.1,0.3,1.1,0.3s-0.2,25.6,0,26.5c0.2,0.9,0.6,0.7,0.6,0.7s2.1,1.5,2.5,1.7c0.5,0.2,0.2,0.7,0.2,0.7l-5,3.9
	c0,0-8.2-3.6-8.8-4.1c-0.8-0.5-0.3-0.9-0.3-0.9l1.5-1.4c0,0,0.2-21.1-0.2-22.2c-0.4-1.1-1.7-1.5-1.7-1.5
	C280.6,32.4,281,32.4,281,32.4L281,32.4z M271,37c0.3,0.7,1,0.6,1,0.6c3.2-1.3,4.5-4.4,4.5-4.4c0.8-3-1.1-3.8-1.1-3.8
	c-1.7-1.1-3-0.2-3-0.2c-1.9,1.1-2.5,3.1-2.5,3.1C269.5,34.9,271,37,271,37L271,37z"/>
<path fill="#FFFFFF" d="M145.8,41.5l0.6-0.3v0.4l0.2-0.2l0.2,0.6l-0.3,0l0.2,0.2c0.4,0.3,0.2,0.6,0.2,0.6l-0.2,0.2
	c-0.6,0.2-0.4-0.8-0.4-0.8l-0.2,0.2l-0.2-0.6h0.3L145.8,41.5L145.8,41.5z"/>
<path fill="#FFFFFF" d="M145.2,44c0.5,0,0.5,0.4,0.5,0.4c0-0.7,0.6-0.1,0.6-0.1c-0.3,0.1-0.4,0.3-0.4,0.3c0,0.4,0.6,0.4,0.6,0.4
	c0.5-0.3,0.4-0.6,0.4-0.6c0.1-0.4-0.4-0.2-0.4-0.2l-0.2-0.4l0.3,0v-0.2l-0.3-0.2l0.9-0.4l-0.1,0.4l0.1,0.1l0.2-0.2l0.2,0.6
	c-0.4-0.1-0.2,0.3-0.2,0.3c0.2,0.2,0.4,0.3,0.5,0.2c0.2-0.1,0.3-0.3,0.3-0.3c0.2-0.3,0-0.4,0-0.4c-0.3,0.1-0.4,0.2-0.4,0.2
	c-0.2-0.9,0.3-0.7,0.3-0.7c-0.1-0.4,0-0.6,0-0.6c0.3,0.2,0.4,0.5,0.4,0.5c0.5-0.5,0.6,0,0.6,0c-0.6,0.1-0.4,0.5-0.4,0.5
	c0.2,0.2,0.3,0.3,0.4,0.2c0.2-0.1,0.3-0.8,0.3-0.8c-0.4-0.5-1.3-0.6-1.3-0.6l0,0.3l-0.5,0.1l-0.1-0.2l-0.1,0v-0.2
	c1.2-0.4,2.2,0.5,2.2,0.5l0,1.6c-1.7,0.2-3.9,1.7-3.9,1.7l-0.9-1.5c0.3-1.2,1.4-1.8,1.4-1.8l0.2,0.2l-0.2,0.2l0.1,0.3l-0.5,0.4
	l-0.4-0.2c-0.2,0.3-0.3,0.6-0.3,0.9l0.3,0.6c0.6,0.2,0.4-0.4,0.4-0.4c-0.2-0.2-0.4,0.2-0.4,0.2c-0.4-0.7,0.1-0.6,0.1-0.6
	C145.1,44.4,145.2,44,145.2,44L145.2,44z"/>
<path fill="#FFFFFF" d="M132,58.9c-0.5,1.4-0.2,3.2-0.2,3.2h-0.3v-2.2c-0.9-0.2-0.5-0.6-0.5-0.6C131.3,58.7,132,58.9,132,58.9
	L132,58.9z"/>
<path fill="#FFFFFF" d="M133.8,63c0.2,0.3,0.2,0.8,0.2,0.8c-0.1-0.3-0.4-0.3-0.4-0.3C133.4,63,133.8,63,133.8,63L133.8,63z"/>
<path fill="#FFFFFF" d="M134.6,63c0.2-0.1,0.2-0.4,0.2-0.4c0.4,0.2,0.2,0.9,0.2,0.9C134.9,63.1,134.6,63,134.6,63L134.6,63z"/>
<path fill="#FFFFFF" d="M134.1,61.4c0.6-0.1,0.8,0.5,0.8,0.5c0.3,0.3,0.3-0.1,0.3-0.1C134.8,60.6,134.1,61.4,134.1,61.4L134.1,61.4z
	"/>
<path fill="#FFFFFF" d="M135,62.1c0.2,0.1,0.3-0.1,0.3-0.1c0.2,0.4,0,0.7,0,0.7c0-0.3-0.2-0.3-0.2-0.3V62.1L135,62.1z"/>
<path fill="#FFFFFF" d="M135.4,61.7c-0.4-1.5-1.5-0.5-1.5-0.5c-0.3-0.9,0.1-1.7,0.1-1.7c0.6,0.1,1.4,0,1.4,0c0.2,0,0.1,0.1,0.1,0.1
	c0.2,0.7-0.3,0.7-0.3,0.7c0.3,0.3,0.4,0.2,0.4,0.2c0.6,0.1,1.2-1.2,1.2-1.2c0.6,0,1.3,0.5,1.3,0.5c0.4,0.4,0,0.5,0,0.5
	c-0.6-0.1-1.6,0.1-1.6,0.1c-0.1,0.1-0.1,0.3-0.1,0.3c0.1,0.2,0.1,1.1,0.1,1.1C136.3,61.6,135.4,61.7,135.4,61.7L135.4,61.7z"/>
<path fill="#FFFFFF" d="M138.1,57.2c0.2-0.6,1.4-1.3,1.4-1.3c0.6-0.2,1.5-0.4,1.5-0.4c1.1,0,1.8,1.2,1.8,1.2l-0.4,0.3l0.2,0.1
	c0.4-0.4,0.8,0,0.8,0c0.4,0.2,1.3,0.5,1.3,0.5c-0.4,0.6-1.7,0.4-1.7,0.4c0,0.7-0.7,1.1-0.7,1.1c0.5,0.4,2.3,0.8,2.3,0.8
	c0.7-1,1.4-0.3,1.4-0.3c0.2,0.1,0.4,0.3,0.4,0.3c-0.4,0.2-0.3,0.7-0.3,0.7c-0.8,0.2-3.1,0.2-3.1,0.2c-2.2-0.3-3.4-0.9-3.4-0.9
	c-0.2-0.1-0.1-0.3-0.1-0.3l0-0.2c0-0.3,0.2-0.2,0.2-0.2c0.8-0.1,1.5-1,1.5-1c0.2-0.5-0.2-0.4-0.2-0.4
	C139.6,57.7,138.1,57.2,138.1,57.2L138.1,57.2z"/>
<path fill="#FFFFFF" d="M145.3,59.2c0.5-0.7,1.3-0.2,1.3-0.2c0.2,0.1,0.3,0.5,0.3,0.5c-0.3,0-0.4,0.3-0.4,0.3
	C146.2,59.1,145.3,59.2,145.3,59.2L145.3,59.2z"/>
<path fill="#FFFFFF" d="M146.3,60.6c-0.1-0.3,0.2-0.4,0.2-0.4c0.2,0.1,0.3,0.4,0.3,0.4C146.7,60.6,146.3,60.6,146.3,60.6L146.3,60.6
	z"/>
<path fill="#FFFFFF" d="M146.6,59.9c0.4,0.2,0.4,0.6,0.4,0.6l0.3,0c0.1-0.6-0.2-0.9-0.2-0.9C146.7,59.6,146.6,59.9,146.6,59.9
	L146.6,59.9z"/>
<path fill="#FFFFFF" d="M147,58.8c0.2,0.1,0.2,0.5,0.2,0.5c0.3,0.2,0.4,0.6,0.4,0.6c0.2-0.1,0.5-0.1,0.5-0.1
	C147.9,58.7,147,58.8,147,58.8L147,58.8z"/>
<path fill="#FFFFFF" d="M147.6,60.1l0,0.3l0.4,0c0-0.2-0.1-0.4-0.1-0.4C147.8,60,147.6,60.1,147.6,60.1L147.6,60.1z"/>
<path fill="#FFFFFF" d="M150.4,51.4c0.1,0.3,0,0.9,0,0.9c-0.1,0.2-0.4,0.7-0.4,0.7l0.6,0.6l1.4,0c0.2-0.5,1-1.3,1-1.3
	c0.5-2.4,1.9-3.4,1.9-3.4v-0.2c-0.3-0.1-0.4-0.4-0.4-0.4c0-0.4,0.3-0.6,0.3-0.6c0.2,0.2,0.2-0.1,0.2-0.1c-0.1-0.1-0.2-0.1-0.2-0.1
	l-0.1,0.2l-0.4,0.6c-0.2,0.5-1.2,2.1-1.2,2.1c-0.3,0.3-1.4,1.5-1.4,1.5l-0.2-0.1C151.2,51.6,150.4,51.4,150.4,51.4L150.4,51.4z"/>
<path fill="#FFFFFF" d="M152.8,58.2l0.3-0.5l0.2,0c0.1,0.6,0.4,1,0.4,1l0,0.8c-0.1-0.3-0.4-0.3-0.4-0.3
	C153.5,58.5,152.8,58.2,152.8,58.2L152.8,58.2z"/>
<path fill="#FFFFFF" d="M151,62h-0.3l-0.7,0.8c0,0.4-0.6,0.7-0.6,0.7c1.1-0.1,1.3-0.5,1.3-0.5c-0.1,0.3-0.2,0.6-0.2,0.6
	c0.7-0.4,0.5-0.5,0.5-0.5c0.1-0.4,0.1-0.4,0.1-0.4c0-0.2,0.1-0.2,0.1-0.2C151.2,62,151,62,151,62L151,62z"/>
<path fill="#FFFFFF" d="M151.4,62.3c0.4,0.1,0.7,0,0.7,0c0.6,0.5,0,1.3,0,1.3c-0.2-0.4-0.1-0.5-0.1-0.5c0.1-0.2-0.1-0.4-0.1-0.4
	c-0.2,0.3-0.1,0.9-0.1,0.9c-0.5-0.2-0.6-0.7-0.6-0.7C151.2,62.6,151.4,62.3,151.4,62.3L151.4,62.3z"/>
<path fill="#FFFFFF" d="M156,57.6l0.4-0.3c0.2,0.4-0.1,0.8-0.1,0.8C156.2,57.9,156,57.6,156,57.6L156,57.6z"/>
<path fill="#FFFFFF" d="M155.4,58.1c0.1-0.1,0.3-0.4,0.3-0.4c0.2,0.4,0.1,0.9,0.1,0.9c-0.2-0.1-0.1,0-0.1,0L155.4,58.1L155.4,58.1z"
	/>
<path fill="#FFFFFF" d="M155.3,54v1.4c1.2-0.1,1.1,0.8,1.1,0.8c0.5,0.2,0.2,1,0.2,1c0.2,0.5,0,1.1,0,1.1c0.6,1.4,2.4,1.9,2.4,1.9
	l-0.1-6.2L155.3,54L155.3,54z"/>
<path fill="#FFFFFF" d="M155.1,51.6l0,0.8c-0.6,1.4-0.3,3.2-0.3,3.2c-0.2,0-0.3,0.2-0.3,0.2C154,53,155.1,51.6,155.1,51.6
	L155.1,51.6z"/>
<polygon fill="#FFFFFF" points="157.6,59.8 157.6,62.8 158.9,63.9 160,62.9 160,60.2 159.6,60.2 159.6,62.6 158.9,63.3 158.2,62.8 
	158.2,60.2 "/>
<path fill="#FFFFFF" d="M158.9,61.2c0.1,0,0.2-0.1,0.2-0.2c0-0.2-0.1-0.3-0.2-0.3c-0.1,0-0.2,0.1-0.2,0.3S158.8,61.2,158.9,61.2
	L158.9,61.2z"/>
<path fill="#FFFFFF" d="M159.2,61.9c0.1,0,0.2-0.1,0.2-0.2c0-0.2-0.1-0.3-0.2-0.3c-0.1,0-0.2,0.1-0.2,0.3
	C159,61.7,159.1,61.9,159.2,61.9L159.2,61.9z"/>
<path fill="#FFFFFF" d="M158.9,62.3c0.1,0,0.2-0.1,0.2-0.2c0-0.1-0.1-0.2-0.2-0.2c-0.1,0-0.2,0.1-0.2,0.2
	C158.7,62.2,158.8,62.3,158.9,62.3L158.9,62.3z"/>
<path fill="#FFFFFF" d="M158.6,61.8c0.1,0,0.2-0.1,0.2-0.3c0-0.1-0.1-0.2-0.2-0.2c-0.1,0-0.2,0.1-0.2,0.2
	C158.4,61.7,158.5,61.8,158.6,61.8L158.6,61.8z"/>
<path fill="#FFFFFF" d="M155.1,58.5c0-0.3,0.1-0.4,0.1-0.4c0.2,0.4,0.5,0.6,0.5,0.6v0c0.1,0.3,0.5,0.6,0.5,0.6
	c0,0.3-0.2,0.3-0.2,0.3C155.4,59.2,155.1,58.5,155.1,58.5L155.1,58.5z"/>
<path fill="#FFFFFF" d="M155.9,58.8c0.2-0.2,0.2-0.4,0.2-0.4c0.1,0.2,0.2,0.2,0.2,0.2l0.1-0.1c0.1,0.1,0.2,0.4,0.2,0.4
	c-0.3,0-0.4,0.4-0.4,0.4C155.9,59.1,155.9,58.8,155.9,58.8L155.9,58.8z"/>
<path fill="#FFFFFF" d="M154.4,59.1l0.3,0.4c0-0.2,0.1-0.3,0.1-0.3l0.3-0.3l-0.2-0.3l-0.3,0.4C154.5,59.1,154.4,59.1,154.4,59.1
	L154.4,59.1z"/>
<path fill="#FFFFFF" d="M154,58.4l0.2,0.3c0-0.2,0.1-0.2,0.1-0.2l0.4-0.4l-0.2-0.2L154,58.4L154,58.4z"/>
<polygon fill="#FFFFFF" points="152.9,53.9 152.9,54.4 153.1,54.3 153.7,54.3 152.9,55.1 153.4,55.5 154.1,55.5 154.1,55.1 
	154,55.1 153.4,55.1 154.1,54.3 154.1,54 154,54 153.1,54 "/>
<polygon fill="#FFFFFF" points="153,52.9 153,53.3 153.1,53.2 154,53.4 154.1,53.5 154.2,53 154,53 153.2,52.9 153,52.8 "/>
<path fill="#FFFFFF" d="M153.8,50.7l0.3,0.2l-0.2,0.1c-0.3,0.3-0.1,0.4-0.1,0.4c0.2,0.1,0.2-0.1,0.2-0.1c0.3-0.4,0.6-0.2,0.6-0.2
	c0.4,0.3,0.1,0.7,0.1,0.7l-0.1,0.2l0,0.1l-0.3-0.1l0.2-0.1c0.2-0.1,0.1-0.3,0.1-0.3c-0.1-0.4-0.3,0-0.3,0c-0.5,0.5-0.7,0-0.7,0
	C153.2,51.2,153.8,50.7,153.8,50.7L153.8,50.7z"/>
<path fill="#FFFFFF" d="M154.9,49.4v0.3c-0.5-0.1-0.4,0.4-0.4,0.4c0.1,0.6,0.5,0.5,0.5,0.5v0.2c-0.6,0.1-0.8-0.4-0.8-0.4
	C154,49.4,154.9,49.4,154.9,49.4L154.9,49.4z"/>
<polygon fill="#FFFFFF" points="155.3,53.8 158.8,53.8 158.8,48.7 155.1,48.6 "/>
<path fill="#FFFFFF" d="M155,43.5c1.5-1.3,3.3-1.6,3.3-1.6v0.8C157.1,42.5,155,43.5,155,43.5L155,43.5z"/>
<path fill="#FFFFFF" d="M159.4,41.9v0.7c2.5-0.1,3.7,1,3.7,1C161.6,41.8,159.4,41.9,159.4,41.9L159.4,41.9z"/>
<polygon fill="#FFFFFF" points="158.5,41.9 158.5,42.7 159.2,42.7 159.2,41.9 "/>
<path fill="#FFFFFF" d="M154,44c-0.2-1.1,0.6-0.7,0.6-0.7L154,44L154,44z"/>
<path fill="#FFFFFF" d="M154.9,43.1c-0.1-1.2,0.7-0.5,0.7-0.5L154.9,43.1L154.9,43.1z"/>
<path fill="#FFFFFF" d="M156,42.4c0-1.2,0.7-0.5,0.7-0.5L156,42.4L156,42.4z"/>
<path fill="#FFFFFF" d="M157,41.8c0.2-1.5,0.8-0.3,0.8-0.3L157,41.8L157,41.8z"/>
<path fill="#FFFFFF" d="M158.3,41h1.1c0.2,0.2-0.2,0.6-0.2,0.6c-0.4,0.1-0.7,0-0.7,0C157.9,41.5,158.3,41,158.3,41L158.3,41z"/>
<polygon fill="#FFFFFF" points="158.3,39.2 159.4,39.2 159.1,39.7 159.3,39.9 159.5,39.6 159.6,40.6 159,40.2 159.3,40.8 
	158.3,40.7 158.7,40.3 158.6,40.1 158.2,40.5 158.2,39.5 158.6,39.9 158.7,39.8 "/>
<path fill="#FFFFFF" d="M162.9,42.8l0.6,0.6C163.7,42.1,162.9,42.8,162.9,42.8L162.9,42.8z"/>
<path fill="#FFFFFF" d="M162.6,42.6l-0.7-0.4C162.7,41.3,162.6,42.6,162.6,42.6L162.6,42.6z"/>
<path fill="#FFFFFF" d="M160.8,41.6l0.7,0.3C161.5,40.6,160.8,41.6,160.8,41.6L160.8,41.6z"/>
<path fill="#FFFFFF" d="M160.5,41.5c-0.1-0.6-0.4-0.6-0.4-0.6c-0.4-0.1-0.4,0.5-0.4,0.5L160.5,41.5L160.5,41.5z"/>
<path fill="#FFFFFF" d="M155.1,47.7c3.9-0.8,7.4,0,7.4,0c0.5,0.1,0.3,0.4,0.3,0.4c-0.4,0.1-0.5,0-0.5,0c-3-0.6-7,0.1-7,0.1
	c-0.6,0-0.5-0.2-0.5-0.2C154.9,47.6,155.1,47.7,155.1,47.7L155.1,47.7z"/>
<polygon fill="#FFFFFF" points="159,48.7 159,53.9 162.4,53.9 162.5,48.7 "/>
<path fill="#FFFFFF" d="M162.4,54H159l0,6.2c1.9-0.3,2.4-1.5,2.4-1.5c0.1-0.6,0.9-2.9,0.9-2.9L162.4,54L162.4,54z"/>
<path fill="#FFFFFF" d="M160.3,60.1v0.6c0.7,0.5,1.6,0.7,1.6,0.7c0.4-0.1,0.2-0.4,0.2-0.4c-0.2-0.2-0.4-0.2-0.4-0.2
	C160.9,60.7,160.3,60.1,160.3,60.1L160.3,60.1z"/>
<polygon fill="#FFFFFF" points="161.5,58.9 161.7,59.1 161,60.2 160.9,59.9 "/>
<path fill="#FFFFFF" d="M161.9,59.2l-0.7,1c1.1,0.7,1.7-0.9,1.7-0.9C162.3,59.4,161.9,59.2,161.9,59.2L161.9,59.2z"/>
<path fill="#FFFFFF" d="M162.6,51.3v1c0.4,0.6,0.4,2,0.4,2l0.3-0.6C163.3,52.3,162.6,51.3,162.6,51.3L162.6,51.3z"/>
<path fill="#FFFFFF" d="M160.2,62.5V63c0.3,0.3,1.2,0.5,1.2,0.5c0.2-0.1,0-0.4,0-0.4C160.9,63.1,160.2,62.5,160.2,62.5L160.2,62.5z"
	/>
<path fill="#FFFFFF" d="M161.6,62.3l0.2-0.7c0.7,0,0.4-0.8,0.4-0.8c0.6-0.2,1.2-1.2,1.2-1.2l0.2,0.4l0.2,0.5
	c0.1,0.2,0.2,0.4,0.2,0.4l-0.4,0.3V61l-0.7,0.6l0.2-1.3l-0.6,1.5C162.2,62.1,161.6,62.3,161.6,62.3L161.6,62.3z"/>
<path fill="#FFFFFF" d="M161.7,62.7c0.6,0.9,2.4,0.9,2.4,0.9c-0.2-0.5-0.7-0.7-0.7-0.7c0.8-0.3,1.5,0.4,1.5,0.4
	c0.4,0.4,0.9,0.4,0.9,0.4c-0.2-0.3-0.4-0.4-0.4-0.4c0.2,0.1,0.5,0,0.5,0c-0.3-0.5-1.1-0.9-1.1-0.9c0.9-0.4,1.6,0.6,1.6,0.6
	c0.4,0.5,0.7,0.7,0.7,0.7l-0.2-0.8c0.2,0.7,1.2,0.9,1.2,0.9c0.1-0.1,0-0.4,0-0.4c-0.3,0-0.5-0.4-0.5-0.4l0-0.8
	c-0.9-0.1-0.9-0.6-0.9-0.6c0.1-0.7,0.8-0.8,0.8-0.8l-0.1-0.9c0.5-0.5,1.5-0.2,1.5-0.2c-0.1-0.6-0.5-0.4-0.5-0.4
	c0-0.4-0.5-0.5-0.5-0.5v0.1l-1.5,1.1c0.2,1.1-0.3,1.5-0.3,1.5c-1,0.6-1.7-0.2-1.7-0.2l-0.6,0.4c0.5,0,0.9,0.5,0.9,0.5l-0.1,0.1
	c-0.4-0.3-0.9-0.4-0.9-0.4l-0.5,0.2l-0.2,0.2L161.7,62.7L161.7,62.7z"/>
<path fill="#FFFFFF" d="M164.9,58.6c0.4-0.6,0.6-1.7,0.6-1.7l0.2,0.2l-0.2,0.8l0.2,0.2l0.3-0.6l0.2,0.2l-0.3,0.5l0.2,0.2l0.3-0.4
	l0.2,0.2l-0.4,0.4l0.2,0.3l0.4-0.6l0.3,0.2l-0.5,0.5l0.2,0.2l0.5-0.4l0.2,0.1l-1.2,1C165.8,58.9,164.9,58.6,164.9,58.6L164.9,58.6z"
	/>
<path fill="#FFFFFF" d="M169.1,59.6c1-0.2,0.2-0.8,0.2-0.8c-0.9-0.3-1-0.2-1-0.2c0.3,0.1,0.3,0.3,0.3,0.3
	C169,59,169.1,59.6,169.1,59.6L169.1,59.6z"/>
<path fill="#FFFFFF" d="M169.2,60.6l0.4-0.9c-0.6,0.2-0.9,0.1-0.9,0.1c-0.6-0.1-0.9,0.1-0.9,0.1c-0.4,0.2-0.1,0.2-0.1,0.2
	C168.1,60.5,169.2,60.6,169.2,60.6L169.2,60.6z"/>
<polygon fill="#FFFFFF" points="170.3,60.4 170.5,60.7 171.5,60.4 170.9,60.8 172,60.8 171.5,60.1 "/>
<path fill="#FFFFFF" d="M167.4,42.5c-0.1-0.7-0.5-1.1-0.5-1.1c-0.4-0.3-0.5,0-0.5,0c0,0.4,0.3,0.5,0.3,0.5L167.4,42.5L167.4,42.5z"
	/>
<path fill="#FFFFFF" d="M168.3,43.1c-0.1-0.4-0.1-0.5-0.1-0.5c-0.2-0.3-0.3-0.4-0.3-0.4l-0.5-0.4c0.2,0.3,0.2,0.7,0.2,0.7
	L168.3,43.1L168.3,43.1z"/>
<path fill="#FFFFFF" d="M168.4,42.5c0.2,0.4,0.2,0.7,0.2,0.7l0.6,0.6c0-0.6-0.3-1.1-0.3-1.1L168.4,42.5L168.4,42.5L168.4,42.5z"/>
<path fill="#FFFFFF" d="M167.1,46.9c-0.3,0.2-0.5,0.1-0.5,0.1c0,0.4,0.7,0.4,0.7,0.4c0.3,0,0.5-0.3,0.5-0.3V47
	c-0.2,0.2-0.5,0.2-0.5,0.2L167.1,46.9L167.1,46.9z"/>
<path fill="#FFFFFF" d="M168,49.7l0.1-0.3c0.8-0.2,0.2-0.8,0.2-0.8c0.3-0.1,0.4,0,0.4,0c0.4-0.2,0.5,0.2,0.5,0.2
	c0.3-0.2,0.5-0.1,0.5-0.1c-0.6,0.6,0.1,0.8,0.1,0.8c0.4,0,0.4-0.4,0.4-0.4c-0.2-0.2-0.2-0.3-0.2-0.3c0.2,0.1,0.3,0.2,0.3,0.2
	c0-0.2,0.2-0.2,0.2-0.2c0.1,0.2,0.1,0.4,0.1,0.4c0.1-0.1,0.4,0,0.4,0c-0.4,0.4,0.1,0.8,0.1,0.8c0.6,0.3,0.5-0.6,0.5-0.6
	c0.4,0,0.4,0.4,0.4,0.4l0.2-0.2c0.1,0.2,0.1,0.4,0.1,0.4c0.2-0.2,0.4,0,0.4,0c-0.6,0.4-0.2,0.8-0.2,0.8c0.2,0.2,0.4,0,0.4,0l0-0.3
	l0.5,0.1l-0.5,0.6C170,49.6,168,49.7,168,49.7L168,49.7z"/>
<path fill="#FFFFFF" d="M169.3,43l0.5,0.3c0,0.3-0.3,0.6-0.3,0.6C169.6,43.6,169.3,43,169.3,43L169.3,43z"/>
<path fill="#FFFFFF" d="M171.8,43.3c1.1-0.3,1.8,1.2,1.8,1.2l-0.8-0.3C172.5,43.8,171.8,43.3,171.8,43.3L171.8,43.3z"/>
<path fill="#FFFFFF" d="M172.9,44.4c0.2,0.3,0.4,0.9,0.4,0.9c0.3,0.3,1.1,0.8,1.1,0.8C174.1,44.7,172.9,44.4,172.9,44.4L172.9,44.4z
	"/>
<path fill="#FFFFFF" d="M173.4,45.7c1.4,0.5,1,2,1,2c-0.2-0.5-0.6-0.7-0.6-0.7C173.4,46.7,173.4,45.7,173.4,45.7L173.4,45.7z"/>
<path fill="#FFFFFF" d="M173.7,47.3c0,0.3-0.1,0.9-0.1,0.9c0.2,0.3,0.4,1,0.4,1c0.2-0.2,0.4-1.1,0.4-1.1
	C174.2,47.6,173.7,47.3,173.7,47.3L173.7,47.3z"/>
<path fill="#FFFFFF" d="M173.5,48.6c-0.1,0.4-0.6,1.3-0.6,1.3l0.2,0.2l0.2,0.2C174.1,49.4,173.5,48.6,173.5,48.6L173.5,48.6z"/>
<path fill="#FFFFFF" d="M181.8,61.8l-0.4-1.4c-0.3-0.4-0.7-0.2-0.7-0.2c-0.4,0.3-0.8,0.1-0.8,0.1c-0.5-0.1-0.1-0.4-0.1-0.4
	c0.6-0.4,1.3-0.6,1.3-0.6c0.5,0.2,1.4,0.2,1.4,0.2c0.8-0.1,0.6,0.5,0.6,0.5c0,0.6-0.2,1.7-0.2,1.7C182.5,61.7,181.8,61.8,181.8,61.8
	L181.8,61.8z"/>
<path fill="#FFFFFF" d="M183.1,62.1l0.2,0.2l-0.6,1.1l-0.3-0.2C182.9,62.9,183.1,62.1,183.1,62.1L183.1,62.1z"/>
<path fill="#FFFFFF" d="M183.5,62.3l-0.5,1.1c0.9,0.2,1.5-0.4,1.5-0.4l-0.1-0.7C184,62.5,183.5,62.3,183.5,62.3L183.5,62.3z"/>
<path fill="#FFFFFF" d="M185.3,61.9c0.2,0,0.6,0.2,0.6,0.2c0.2-0.7-0.2-1.6-0.2-1.6c0.7,0.2,0.7,0,0.7,0c0.2-0.6-0.5-0.7-0.5-0.7
	c-1.2-0.4-1.6-0.3-1.6-0.3c0.1,0.3,0,0.5,0,0.5c0,0.1,0,0.4,0,0.4C185.6,60.8,185.3,61.9,185.3,61.9L185.3,61.9z"/>
<polygon fill="#FFFFFF" points="162.6,49.3 162.6,49.7 163,49.4 162.6,50.3 162.6,50.9 163.2,49.5 163,49.1 "/>
<polygon fill="#FFFFFF" points="162.8,51.1 162.9,51.1 163.8,50.4 163.8,50.3 164,50.7 163.9,50.7 163.2,51.3 163.3,51.6 
	163.5,51.9 163.2,52 "/>
<polygon fill="#FFFFFF" points="163.5,52.9 163.6,53.4 163.8,53.2 164.1,53.1 164.4,53.3 164.8,53.3 164.3,53 164.7,52.6 
	164.5,52.1 164.5,52.3 164.1,52.8 163.6,52.9 "/>
<path fill="#FFFFFF" d="M164.1,55.7c-0.2,0-0.1,0.2-0.1,0.2c0.4,0.5,0.6,0.1,0.6,0.1c0.1-0.2,0.1-0.4,0.1-0.4l-0.1,0
	c0,0.5-0.2,0.4-0.2,0.4C164.2,55.9,164.1,55.7,164.1,55.7L164.1,55.7z"/>
<polygon fill="#FFFFFF" points="163.7,56.5 163.6,57 163.8,57.3 163.8,56.8 164.3,57 164,57.4 163.9,57.5 164.2,57.6 164.5,57 
	164.6,56.8 164.5,56.8 163.7,56.4 "/>
<path fill="#FFFFFF" d="M155.7,61c-0.1,0.3-0.4,0.3-0.4,0.3l-0.4-0.5c-0.3-0.4,0-0.6,0-0.6l0.6-0.8c0.2,0.1,0.3,0.3,0.3,0.3
	l-0.4,0.5c-0.1,0.3,0.1,0.4,0.1,0.4L155.7,61L155.7,61z"/>
<path fill="#FFFFFF" d="M156.3,59.3c0.2,0.7-0.5,0.5-0.5,0.5c-0.2,0.5,0.1,0.5,0.1,0.5c0.6,0,0.8-0.5,0.8-0.5
	C156.6,59.4,156.3,59.3,156.3,59.3L156.3,59.3z"/>
<path fill="#FFFFFF" d="M168.3,48l-0.5-0.4c0,0,0.4-0.3,0.3-0.7c0,0,0.3,0-0.3,0l-0.2,0.1c0,0-0.2-0.1-0.2-0.2l-0.1-0.5l0.4-0.4
	l0.3,0c0.2-0.3,0.9-0.9,1.4-1.3l0.2,0.2c-0.2,0.4,0,0.6,0,0.6c0.3,0.2,0.4-0.2,0.4-0.2c0.3,0.2,0.2,0,0.2,0
	c-0.3-0.1-0.7-0.5-0.8-0.6c0.4-0.4,0.8-0.6,0.8-0.6c0.2-0.4,0.5-0.6,0.5-0.6c-0.2-0.2-0.4-0.9-0.4-0.9c1,0,1.2,1.1,1.2,1.1
	c3.1,2.5,1.2,6.4,1.2,6.4c-0.9-0.8-3-1.3-3-1.3c0.3-0.6,1-0.9,1-0.9c1.3,0,1.1-1.6,1.1-1.6c-0.3-0.6-0.2,0.3-0.2,0.3
	c-0.6,1.9-2,0.2-2,0.2c-0.2-0.1,0,0.3,0,0.3c0.1,0.2,0.2,0.2,0.2,0.2l0.1,0.1l-1,0.4c-0.2,0.2-0.4,0.6-0.4,0.6L168.3,48L168.3,48z"
	/>
<path fill="#FFFFFF" d="M149.4,44.8c-1.7,0.2-3.8,1.7-3.8,1.7c-0.2,0.2-0.3,0.1-0.3,0.1c-0.4,0.7,0.4,1.1,0.4,1.1
	c-0.2,1.1,0.3,1.9,0.3,1.9c0.4,0.4,0.4,1.6,0.4,1.6c0.3-0.2,0.4-0.6,0.4-0.6c0.3,1.4,1.4,1.7,1.4,1.7c0.4,0.1,0.6,0.5,0.6,0.5
	c0.1-0.4,0.1-0.8,0.1-0.8c0.1,0.5,0.6,0.8,0.6,0.8c0.1-0.5,0.2-0.9,0.2-0.9c0.4-0.8,0.1-1.5,0.1-1.5c0.2,0.3,0.5,0.4,0.5,0.4
	c-0.2-0.7,0-1.3,0-1.3c0.1-0.7-0.2-1.2-0.2-1.2l-0.1-0.3c-0.2,0.5-0.1,1.3-0.1,1.3c-0.2,0-0.4-0.1-0.4-0.1c0.1,0.7-0.4,1.7-0.4,1.7
	c-0.3,0.4-0.3,0.8-0.3,0.8c-0.4-0.5-1.5-0.8-1.5-0.8c-0.2-0.3-0.5-0.7-0.5-0.7c-0.2,0.3-0.3,0.2-0.3,0.2c-0.1-0.4-0.5-0.9-0.5-0.9
	c-0.3-0.5-0.3-1-0.3-1c0.4,0.7,0.5,0.9,0.5,0.9c0.3,0.2,0.3,0.7,0.3,0.7c0.2-0.1,0.3-0.4,0.3-0.4c0.6,0.9,1.3,1.1,1.3,1.1
	c0.3,0.2,0.6,0.4,0.6,0.4c0-0.6,0.3-0.9,0.3-0.9c0.5-0.7,0.2-1.6,0.2-1.6c0.2,0.4,0.6,0.4,0.6,0.4c-0.1-0.4,0-0.7,0-0.7
	c0.1-0.3,0.1-0.6,0.1-0.9l-0.1-0.4c-0.2-0.5-0.3-0.9-0.3-0.9C150.2,45.2,149.4,44.8,149.4,44.8L149.4,44.8z M147.8,48.4
	c0.3,0.4,0.8,0.6,0.8,0.6c0.2-0.5,0.2-0.9,0.2-0.9c-0.4,0-0.5-0.1-0.5-0.1C148,48.5,147.8,48.4,147.8,48.4L147.8,48.4z M146.2,46.7
	c0.6,0.2,0.8-0.1,0.8-0.1c0.6-0.2,0.7,0.4,0.7,0.4c0,0.3,0.1,0.5,0.1,0.5c0.2,0,0.5,0,0.6-0.2c0.2-0.2-0.1-0.4-0.1-0.4
	c-0.1-0.3-0.2-0.4-0.2-0.4c0-0.6,0.4-0.6,0.4-0.6c0.3,0,0.5-0.2,0.5-0.2c0,0.6-0.4,0.8-0.4,0.8c-0.3,0.2-0.2,0.4-0.2,0.4
	c0.3,0.5,0,0.5,0,0.5c-0.1,0.2-0.2,0.2-0.3,0.3c0.1,0.3,0.4,0.3,0.4,0.3c0.4-0.2,0.4-0.7,0.4-0.7c0.2,0.6,0,0.7,0,0.7
	c0.2,0.4-0.1,0.5-0.1,0.5c0,0.7-0.4,1-0.4,1c-1.4-0.8-1.4-1.7-1.4-1.7c0.4,0.8,0.9,0.4,0.9,0.4c0.1-0.1,0.1-0.3,0.1-0.5
	c-0.2,0-0.4,0-0.4,0c-0.2-0.3-0.2-0.6-0.2-0.6c-0.2-0.4-0.3-0.1-0.3-0.1C146.4,47.4,146.2,46.7,146.2,46.7L146.2,46.7z"/>
<path fill="#FFFFFF" d="M136.8,60.6c1.1,0.7,5.3,0.7,5.3,0.7c4,0,6.2-0.5,6.2-0.5c0.5,0,1.3-0.4,1.3-0.4c0.2,0,0.1,0.3,0.1,0.3
	c-0.2,0.9,0,1.9,0,1.9c0,0.6-0.7,0.6-0.7,0.6c-5.9,0.8-10.6,0.4-10.6,0.4c-1.4-0.2-1.4-1-1.4-1c0.3-1.1-0.1-1.8-0.1-1.8
	C136.7,60.7,136.8,60.6,136.8,60.6L136.8,60.6z M138.1,63l0.1-0.1v-1.2l-0.1-0.2c0.9,0,1.2,0.3,1.2,0.3c0.6,1-0.4,1.3-0.4,1.3
	C138.4,63.2,138.1,63,138.1,63L138.1,63z M140.1,61.7l0.6,0c-0.2,0.1-0.1,0.3-0.1,0.3l0,1.1c0.1,0.1,0.2,0.2,0.2,0.2l-0.6,0
	c0.2-0.1,0.2-0.2,0.2-0.2v-1.2C140.3,61.8,140.1,61.7,140.1,61.7L140.1,61.7z M138.6,61.7l0,1.1c0.4,0,0.5-0.3,0.5-0.3
	c0.1-0.2-0.1-0.5-0.1-0.5C138.9,61.7,138.6,61.7,138.6,61.7L138.6,61.7z M141.4,61.8h1.2l0,0.3c-0.2-0.1-0.4-0.1-0.4-0.1H142v0.4
	h0.1l0.3-0.1l0,0.4l-0.2,0H142v0.5c0.2,0,0.3,0,0.3,0c0.2,0,0.3-0.1,0.3-0.1v0.3l-0.9,0h-0.2c0,0,0,0,0,0c0.1,0,0.2-0.1,0.2-0.1
	v-1.3C141.6,61.9,141.4,61.8,141.4,61.8L141.4,61.8z M143.2,61.7l0.6,0c0,0-0.1,0.2-0.1,0.2v0.8c0,0.3,0.3,0.3,0.3,0.3
	c0.3,0,0.2-0.4,0.2-0.4v-0.8c0,0-0.1-0.1-0.1-0.1h0.4c0,0,0,0.1,0,0.1v0.9c0,0.5-0.6,0.6-0.6,0.6c-0.6,0-0.6-0.6-0.6-0.6v-0.8
	C143.3,61.8,143.2,61.7,143.2,61.7L143.2,61.7z M146.2,61.6l1-0.1l0.1,0.3c-0.1,0-0.3,0-0.3,0h-0.2v0.4h0.2c0,0,0.1-0.1,0.1-0.1
	l0,0.4c-0.1-0.1-0.2-0.1-0.2-0.1h-0.2v0.4h0.3c0.1,0,0.2-0.1,0.2-0.1V63l-0.9,0.1c0,0,0.1-0.1,0.1-0.1l0-1.3
	C146.3,61.6,146.2,61.6,146.2,61.6L146.2,61.6z M147.9,61.4l0,0.3c0.1-0.2,0.4-0.2,0.4-0.2l0,1.2l-0.1,0.1l0.5-0.1l-0.1,0l0-1.2
	c0.2-0.1,0.4,0,0.4,0l0-0.3l0,0L147.9,61.4L147.9,61.4L147.9,61.4L147.9,61.4z"/>
<path fill="#FFFFFF" d="M150.3,60.1c-0.3-0.5-0.1-0.9-0.1-0.9c0.2-0.7,0.9-0.6,0.9-0.6c0.4,0.2,0.4-0.1,0.4-0.1
	c0.4-0.6,0.9-0.2,0.9-0.2c0.2,0.3,0.5,0.3,0.5,0.3c0.3,0.4,0.1,0.6,0.1,0.6c0,0.2,0.1,0.4,0.1,0.4c0.4,0.1,0.3,0.5,0.3,0.5
	c0.1,0.4-0.2,1.2-0.2,1.2c-0.2,0.2-0.5,0-0.5,0c-0.2,0-0.1,0.1-0.1,0.1c0.2,0.3,0,0.5,0,0.5c-0.3,0.4-0.8,0.3-0.8,0.3
	c-0.6,0-0.7-0.3-0.7-0.3c-0.1-0.3-0.4-0.3-0.4-0.3c-0.5-0.2-0.6-0.7-0.6-0.7c0-0.3,0.2-0.4,0.2-0.4
	C150.5,60.3,150.3,60.1,150.3,60.1L150.3,60.1z M151.4,60.5c0.2,0.6-0.2,0.9-0.2,0.9c-0.3,0-0.4-0.2-0.4-0.2c0-0.2-0.2-0.3-0.2-0.3
	c-0.1-0.5,0.1-0.5,0.1-0.5C151.1,60.2,151.4,60.5,151.4,60.5L151.4,60.5z M152.1,60.2c0.1,0.4,0.6,0.7,0.6,0.7
	c0.3,0,0.2-0.4,0.2-0.4c-0.2-0.2-0.1-0.3-0.1-0.3c0.4-0.1,0.1-0.4,0.1-0.4C152.2,59.6,152.1,60.2,152.1,60.2L152.1,60.2z
	 M151.6,59.6c0-0.8-0.5-0.7-0.5-0.7c-0.2,0-0.2,0.3-0.2,0.3c0.1,0.4-0.1,0.4-0.1,0.4c-0.4,0.1-0.1,0.5-0.1,0.5
	c0.1,0.2,0.2,0.1,0.2,0.1c0.4,0,0.6-0.2,0.6-0.2C151.7,59.9,151.6,59.6,151.6,59.6L151.6,59.6z M152.1,58.7c0.1,0.2,0.3,0.2,0.3,0.2
	c0.4,0,0.2,0.4,0.2,0.4c-0.2,0.3-0.6,0.4-0.6,0.4c-0.4-0.5-0.4-0.8-0.4-0.8C151.6,58.3,152.1,58.7,152.1,58.7L152.1,58.7z
	 M151.8,60.7c0.6,0.1,0.6,0.7,0.6,0.7c-0.2,0.3-0.3,0.2-0.3,0.2c-0.2-0.2-0.3,0-0.3,0c0,0.4-0.3,0.1-0.3,0.1
	C151.3,60.8,151.8,60.7,151.8,60.7L151.8,60.7z"/>
<path fill="#FFFFFF" d="M152.4,62.3c0.6-0.2,0.6-0.7,0.6-0.7c0,0,0.1,0,0.1-0.1c0.4,0.3,0.5,0.6,0.5,0.6c0.2,0.1,0.4,0.5,0.4,0.5
	c0-0.5-0.3-0.7-0.3-0.7c-0.1-0.3-0.3-0.6-0.4-0.7c0.3-0.4,0.3-1,0.3-1c0.4-0.2,0.9,0.4,0.9,0.4c-0.2,0.1-0.3,0-0.3,0
	c0.6,0.3,0.5,1.3,0.5,1.3c-0.3,0-0.4-0.1-0.4-0.1c0.5,0.6,0,1.7,0,1.7c-0.5-0.2-0.6-0.8-0.6-0.8c0.1,0.4-0.1,0.5-0.1,0.5
	c-0.4-0.1-0.6-0.6-0.6-0.6c0,0.5-0.3,0.3-0.3,0.3c-0.1-0.1-0.1-0.4-0.1-0.4C152.5,62.6,152.4,62.3,152.4,62.3L152.4,62.3z"/>
<path fill="#FFFFFF" d="M157.4,61.9c-0.2,0-0.3-0.1-0.5-0.2c-0.1,0.3-0.4,0.9-0.7,1.3c0,0,0.4-0.7,0.6-1.3c-0.6-0.3-1-0.6-1-0.6
	c0,0.6-0.7,0.3-0.7,0.3c-0.3,0.6,0.3,0.8,0.3,0.8c0.5,0,0.7-0.3,0.7-0.3c0.6-0.1,0.2,0.3,0.2,0.3c-0.2,0.2-0.6,0.3-0.6,0.3
	c-0.6,0.2-0.3,0.7-0.3,0.7c0.3,0.4,0.6,0.3,0.6,0.3c0.3,0,0.3,0.2,0.3,0.2c0.2,0.5,0.5,0.2,0.5,0.2c0.4-0.4,0.2-0.8,0.2-0.8
	c-0.2-0.5-0.1-0.7-0.1-0.7c-0.1-0.7,0.2-0.2,0.2-0.2c0.1,0.1,0.2,0.4,0.2,0.4c0.1,0.3,0.2,0.1,0.2,0.1L157.4,61.9L157.4,61.9z"/>
<path fill="#FFFFFF" d="M151.1,58.4l0.2-0.4c0-0.5-0.5-0.8-0.5-0.8c-0.1,0.2,0,0.4,0,0.4c-0.2-0.4-1-0.6-1-0.6c-0.1,0.2,0,0.6,0,0.6
	c-0.4-0.7-1.1-0.7-1.1-0.7c0,0.3,0.2,0.5,0.2,0.5c-0.4-0.3-1.1-0.2-1.1-0.2c0.1,0.7,0.7,1.2,0.7,1.2l-0.1,0.2
	c-0.4-0.3-0.6-0.1-0.6-0.1c0,0,0,0.1,0,0.1c0.2,0.4,1.1,0.8,1.1,0.8c-0.2,0.1-0.3,0.3-0.3,0.3c0.3,0.6,1.3,0.6,1.3,0.6
	c-0.2-0.6-0.1-1.1,0-1.3c-0.1-0.1-0.7-0.4-0.8-0.6c0,0-0.2-0.2-0.5-0.5l-0.6-0.4c0,0,0.4,0.2,0.8,0.4c0,0,0.7,0.6,1.3,0.9
	C150.6,58.3,151.1,58.4,151.1,58.4L151.1,58.4z"/>
<path fill="#FFFFFF" d="M167.7,60.5c0.2,1,0.1,2.3,0.1,2.3c4.5,1.7,12.3,0.7,12.3,0.7c1.3-0.2,1.3-0.4,1.3-0.4
	c0.5,0,0.4-0.8,0.4-0.8c-0.3-0.4-0.4-1.8-0.4-1.8c-1.1,0.6-7,0.8-7,0.8C169.5,61.5,167.7,60.5,167.7,60.5L167.7,60.5z M168.2,61.1
	l0.4,0.1l0.2,0.9l0.5-0.7l0.4,0l0,0.1v1.3l0.1,0.2l-0.6-0.1l0.1-0.1v-0.7l-0.5,0.7l-0.4-0.9v0.6v0.2l-0.3-0.2l0-0.1l0-1.2
	L168.2,61.1L168.2,61.1z M170.4,61.7c-0.7,0.6,0,1.4,0,1.4c0.4,0.4,0.9,0,0.9,0c0.6-0.9,0-1.4,0-1.4
	C170.7,61.4,170.4,61.7,170.4,61.7L170.4,61.7z M170.8,61.7c-0.7,0.3-0.2,1.1-0.2,1.1c0.2,0.4,0.4,0.1,0.4,0.1
	c0.3-0.3,0.1-0.9,0.1-0.9C171,61.7,170.8,61.7,170.8,61.7L170.8,61.7z M171.9,61.7h0.3l0.5,0.7l0-0.6l0-0.1l0.5,0l-0.1,0.1v1.4
	l0,0.1h-0.3l-0.6-0.9v0.6l0,0.2l-0.4,0l0-0.2l0-1.2L171.9,61.7L171.9,61.7z M174.4,61.7h0.6c0.6,0,0.7,0.8,0.7,0.8
	c0,0.9-0.9,0.9-0.9,0.9l-0.4,0l0.2-0.1l0-1.4L174.4,61.7L174.4,61.7z M174.9,61.9v1.3c0.5-0.2,0.4-0.8,0.4-0.8
	C175.2,61.9,174.9,61.9,174.9,61.9L174.9,61.9z M176,61.7l0.2,0c0.3-0.2,0.7,0,0.7,0c0.4,0.4,0,0.9,0,0.9l0.4,0.6
	c0.1,0,0.2,0.1,0.2,0.1c-0.2,0.1-0.3,0-0.3,0c-0.4-0.2-0.4-0.6-0.4-0.6h-0.2v0.6l0,0.1h-0.4l0-0.1l0-1.4L176,61.7L176,61.7z
	 M176.5,62.5v-0.7c0.2-0.2,0.3,0,0.3,0c0.2,0.3,0,0.5,0,0.5C176.7,62.5,176.5,62.5,176.5,62.5L176.5,62.5z M178.3,61.5
	c0.8,0,0.8,1,0.8,1c-0.1,0.8-0.8,0.8-0.8,0.8c-0.7-0.1-0.7-0.9-0.7-0.9C177.6,61.4,178.3,61.5,178.3,61.5L178.3,61.5z M178.3,61.7
	c0.4,0,0.4,0.6,0.4,0.6c0,0.6-0.4,0.7-0.4,0.7c-0.2,0-0.3-0.2-0.3-0.2c-0.2-0.8,0.1-1,0.1-1C178.1,61.7,178.3,61.7,178.3,61.7
	L178.3,61.7z M179.3,61.4l0.6,0l-0.1,0.2l0,1.4l0.1,0.1l-0.5,0l0-0.1l0-1.5L179.3,61.4L179.3,61.4z M180.3,61.3l0,0.4l0.1-0.1l0.2,0
	v1.3l0,0.1l0.4-0.1l0-0.1v-1.3h0.3l0-0.3l-0.1,0l-0.7,0.2L180.3,61.3L180.3,61.3z"/>
<path fill="#FFFFFF" d="M163.7,59.5c0,0.1,0,0.2,0,0.3c0,0,0,0,0.1,0c0.1-0.4,0.1-0.5,0.1-0.5l0.1-0.1c0.1,0.1,0,0.4,0,0.5
	c0.1,0,0.2,0,0.3,0c0.1-0.2,0.1-0.4,0.1-0.6l-0.6-0.1C163.6,59.2,163.7,59.5,163.7,59.5L163.7,59.5z M163.8,59.9
	c0.1,0.3,0.3,0.5,0.4,0.7c0.2-0.1,0.1-0.7,0.1-0.9C164.3,59.8,164,59.8,163.8,59.9L163.8,59.9z M164.3,60.8c0.2,0.2,0.4,0.3,0.5,0.4
	c0.1-0.2,0.1-0.5,0.1-0.7c-0.2,0-0.5,0.1-0.6,0.1C164.4,60.7,164.3,60.7,164.3,60.8L164.3,60.8z M165,61.2c0.1,0,0.2,0.1,0.2,0.1
	c0.1,0,0.3,0,0.4,0l0-0.4c-0.1,0-0.4,0.1-0.5,0.2C165,61.1,165,61.2,165,61.2L165,61.2z M165.7,61.2c0.3-0.1,0.4-0.3,0.4-0.5
	c-0.2-0.1-0.3,0-0.4,0L165.7,61.2L165.7,61.2z M166.1,60.6c0-0.5-0.2-0.9-0.4-1.2c0,0.1,0.1,0.5,0.1,0.7l0.2-0.1l0,0.1l-0.3,0
	c0,0.1,0,0.2,0,0.4C165.9,60.5,166,60.6,166.1,60.6L166.1,60.6z M165.5,59.3c-0.2-0.1-0.3-0.3-0.5-0.3c0,0.1,0.1,0.2,0.1,0.5
	C165.2,59.4,165.4,59.3,165.5,59.3L165.5,59.3z M164.8,58.9c-0.3-0.1-0.6-0.1-0.6-0.1c-0.2,0-0.3,0.1-0.4,0.2l0.6,0L164.8,58.9
	L164.8,58.9z M164.4,59.1c0,0.2,0.1,0.3,0,0.4c0.3-0.1,0.5-0.1,0.6,0c0-0.1,0-0.3-0.1-0.5L164.4,59.1L164.4,59.1z M165.2,59.6
	c0.1,0.2,0,0.4,0,0.6c0.2-0.1,0.4-0.1,0.4-0.1c0-0.1,0-0.4-0.1-0.6C165.4,59.5,165.3,59.5,165.2,59.6L165.2,59.6z M165.1,60.4
	c0.1,0.2,0,0.4,0,0.6c0.2-0.2,0.4-0.2,0.4-0.2c0.1-0.1,0.1-0.3,0.1-0.4C165.4,60.3,165.1,60.4,165.1,60.4L165.1,60.4z M165,59.7
	c-0.3-0.1-0.6,0-0.6,0c0,0.3,0,0.5,0,0.7c0.2-0.1,0.5-0.1,0.6-0.1C165.1,60,165.1,59.8,165,59.7L165,59.7z"/>
<path fill="#FFFFFF" d="M155,47.4l-0.7-2.2l0.4-1l0.4,1.6l-0.4-0.2c0.3,1.3,1.3,0.6,1.3,0.6c0.4-0.5,0-0.6,0-0.6
	c-0.5-0.3-0.6,0-0.6,0c-0.4-1.4,0.6-0.9,0.6-0.9c0-0.9,0.3-1,0.3-1c0.5,0.2,0.5,0.9,0.5,0.9c0.5-0.9,0.9,0,0.9,0c0,0.1,0,0.4,0,0.4
	c-0.6-0.2-0.7,0.4-0.7,0.4c-0.1,0.4,0.7,0.6,0.7,0.6c1-0.3,1-1.3,1-1.3c-0.3,0-0.8,0.5-0.8,0.5v-1.8c0.2,0.4,0.9,0.7,0.9,0.7
	c-0.1-0.8-0.6-1.3-0.6-1.3l1.7,0c-0.6,0.5-0.5,1.3-0.5,1.3c0.5-0.1,0.7-0.6,0.7-0.6l0,1.6c-0.4-0.6-0.7-0.3-0.7-0.3
	c-0.2,1.2,0.9,1.3,0.9,1.3c0.7,0,0.8-0.6,0.8-0.6c-0.2-0.7-0.6-0.3-0.6-0.3c-0.2-1.2,0.7-0.7,0.7-0.7c-0.3-0.8,0.2-1.1,0.2-1.1
	c0.7,0.4,0.4,1.1,0.4,1.1c0.9-0.5,0.8,0.7,0.8,0.7c-0.9-0.4-0.8,0.5-0.8,0.5c0.4,1,1.2,0.2,1.2,0.2c0.2-0.2,0.2-0.5,0.2-0.5
	l-0.4,0.1l0.4-1.3l0.3,0.6l0.2-0.7l0.2,0.2l-1.2,3C159.1,46.7,155,47.4,155,47.4L155,47.4z M161.1,46.9c-0.2,0-0.4-0.1-0.4-0.2
	c0-0.1,0.2-0.2,0.4-0.1c0.2,0,0.4,0.1,0.4,0.2C161.5,46.9,161.3,46.9,161.1,46.9L161.1,46.9z M156.7,46.9c0.2,0,0.4-0.1,0.4-0.2
	c0-0.1-0.2-0.1-0.4-0.1c-0.2,0-0.4,0.1-0.4,0.2S156.4,46.9,156.7,46.9L156.7,46.9z M158.9,46.1l0.6,0.5l-0.6,0.4l-0.5-0.4
	L158.9,46.1L158.9,46.1z"/>
<path fill="#FFFFFF" d="M166.5,52.5c0-0.6,0.4-1.2,0.4-1.2l-0.5-0.5l-0.2,0.3c0.1,0.1,0.1,0.2,0.1,0.3c0,0.2-0.1,0.3-0.3,0.4l0,0.2
	L166.5,52.5L166.5,52.5z M166.3,50.6l-1.2-1.3c-0.8-1.2-1.4-0.6-1.4-0.6l-0.6,0.2c0.4,0.3,0.7,0.8,0.7,0.8c0.5-0.1,0.5,0.2,0.5,0.2
	l1.3,1.5c0,0,0,0,0,0c0-0.2,0.2-0.4,0.4-0.4c0,0,0.1,0,0.1,0L166.3,50.6L166.3,50.6z"/>
<path fill="#FFFFFF" d="M164.6,50.4c-0.3-0.3-0.5-0.6-0.6-0.4c0,0,0.4,0.7,0.6,1.5c0.2,0.6,0.4,1.3,0.3,1.9l0.6,0l0.2,0l-0.1-0.3
	c-0.2,0-0.3-0.2-0.3-0.4c0-0.3,0.2-0.5,0.4-0.5c0,0,0,0,0,0l0.1-0.3c-0.1-0.1-0.2-0.3-0.3-0.4c-0.2-0.2-0.4-0.4-0.5-0.6
	C164.9,50.8,164.7,50.6,164.6,50.4L164.6,50.4z M165.9,53.6l0.7,0.1c0,0-0.2-0.3-0.1-0.9c0,0-0.2-0.2-0.4-0.5l0,0.2
	c0.1,0.1,0.2,0.2,0.2,0.4c0,0.2-0.1,0.4-0.3,0.4L165.9,53.6L165.9,53.6z"/>
<path fill="#FFFFFF" d="M161.7,58.7c0.3,0.4,1.1,0.3,1.1,0.3c0.1-0.1,0.1-0.6,0.1-0.6c-0.1-0.3,0-0.4,0-0.4c0.2,0,0.2,0.3,0.2,0.3
	c0,0.1-0.1,0.5-0.1,0.5c0.9-0.6,0.1-1.7,0.1-1.7c0.2-1.1,0.5-1.4,0.5-1.4c0.9-0.8,1.4-0.5,1.4-0.5c0.8,0,2.1,0.4,2.1,0.4
	c0.5,0.2,2.4,0.5,2.4,0.5c0-0.2,0.2-0.3,0.2-0.3c0.5-0.4,0.9-2.1,0.9-2.1c0-0.3,0.1-0.2,0.1-0.2c0.1,0.3,0,0.4,0,0.4
	c0.1,0.6-0.4,1.7-0.4,1.7c1,0.6,2.6,0.4,2.6,0.4c1.2,0,2.1-0.6,2.1-0.6c1.1-0.5,2.5-0.4,2.5-0.4l0-0.2c-1-0.4-0.3-1-0.3-1l-0.4-0.6
	c-1.1-0.1-4.5-1.9-4.5-1.9c-2.9-1.6-4.5-1.3-4.5-1.3c-1.3,1.3-1.1,3.6-1.1,3.6l0.7,0.1c0-1.5,0.9-2.4,0.9-2.4
	c0.3-0.1,0.1,0.2,0.1,0.2c-1,1.5-0.6,2.6-0.6,2.6c-0.4-0.2-3.1-0.3-3.1-0.3c-0.7-0.2-1.3,0.2-1.3,0.2c-0.5,0.4-0.7,1.1-0.7,1.1
	l-0.5,1.8C161.8,58.1,161.7,58.7,161.7,58.7L161.7,58.7z M173,54c-0.2,0.9-0.7,1.8-0.7,1.8c0.1,0.3,0.4-0.2,0.4-0.2
	c0.4-0.6,0.5-1.5,0.5-1.5C173.2,53.4,173,54,173,54L173,54z M171.7,53.4c-0.2,1.3-0.8,2.1-0.8,2.1c-0.1,0.3,0.2,0.1,0.2,0.1
	c0.5-0.7,0.7-2.1,0.7-2.1C171.8,53.1,171.7,53.4,171.7,53.4L171.7,53.4z M172.4,53.8c0,0.9-0.8,1.8-0.8,1.8
	c-0.2,0.3,0.2,0.1,0.2,0.1c0.7-0.6,0.8-1.9,0.8-1.9C172.5,53.3,172.4,53.8,172.4,53.8L172.4,53.8z"/>
<path fill="#FFFFFF" d="M176.8,55.5c0.4-0.1,0.7-0.1,0.9-0.1l0.1,0.4c-0.2,0.1-0.3,0.3-0.3,0.5c0,0.3,0.2,0.5,0.4,0.5c0,0,0,0,0,0
	v0.6c-0.7,0.2-1.3,0.3-1.3,0.3c-0.7,0.2-0.2,0.6-0.2,0.6c0.4,0.3,0.4,0.6,0.4,0.6c0.3,0.4-0.2,0.6-0.2,0.6c-1.1,0.2-2.3,1.3-2.3,1.3
	c-0.9,0.1-2.1,0-2.1,0c-0.3-0.2-0.6-0.8-0.6-0.8c0.4-0.4,0.9,0.1,0.9,0.1c0.4,0.2,1.1,0.1,1.1,0.1c0.6-0.3,1.5-0.7,1.5-0.7
	c0.2-0.1,0.4-0.1,0.4-0.1c0.2-0.1,0-0.3,0-0.3c-0.6-0.4-1.1-1-1.1-1c-0.3-0.5,0-0.8,0-0.8C174.9,56.8,176.8,55.5,176.8,55.5
	L176.8,55.5z M178,55.5c0.4,0.2,0.6,0.5,0.6,0.5c0.2,0.5,0.2,0.7,0.2,0.7c-0.1,0.2,0,0.5,0,0.5c-0.2,0.1-0.4,0.2-0.6,0.3v-0.6
	c0.1-0.1,0.2-0.3,0.2-0.4c0-0.3-0.2-0.5-0.4-0.5L178,55.5L178,55.5z"/>
<path fill="#FFFFFF" d="M186.8,54.2c0.2-0.9,0-1.8,0-1.8c-0.3-0.6-0.6-0.7-0.6-0.7c0-1.7-1.1-2-1.1-2c0,0.3,0.2,0.8,0.2,0.8
	c0.1,0.2-0.2,0-0.2,0c0-0.6-0.6-0.9-0.6-0.9c-0.4-0.2-0.6-0.5-0.6-0.5c-0.4,0.7,0.7,1.5,0.7,1.5c-1.8-0.1-5,0.6-5,0.6
	c-2.2,0.5-3.5-0.2-3.5-0.2c-1.3-0.6-0.8-1.8-0.8-1.8c0.6-1.2,1.9-1.1,1.9-1.1c1.1,0,1.9,0.3,1.9,0.3c1.9,0.5,4-0.1,4-0.1
	c1-0.5,1.3-1.5,1.3-1.5c-0.6,0.4-1.5,0.4-1.5,0.4c-0.5,0.5-2.2,0.6-2.2,0.6c1.1-0.4,1.1-0.9,1.1-0.9c0.1-0.3,0.5-0.6,0.5-0.6
	c-0.7,0.1-1.5,0.8-1.5,0.8c-0.5,0.4-1.7,0.4-1.7,0.4c-0.2,0.1-0.6,0-0.6,0c0.8-0.2,0.9-0.6,0.9-0.6c-1.9-0.5-3.6,0.6-3.6,0.6
	c-1.6,1.3-1.1,2.7-1.1,2.7c0.3,1.3,2.6,1.7,2.6,1.7c2.1,0.1,4.7-0.2,4.7-0.2c1.9-0.2,2.5,0,2.5,0c0.2,0.2,0,0.2,0,0.2
	c-1.2-0.2-1.5,1.2-1.5,1.2c0.8-0.9,1.9-0.6,1.9-0.6c0.2,0,0,0.1,0,0.1c-0.6-0.1-1,0.3-1,0.3c0.8,0.5,1.3,0.3,1.3,0.3
	c0.3-0.1,0.5-0.4,0.5-0.4c0.5,0.7,0.4,1.3,0.2,1.7c-0.3,0.5-0.8,0.7-0.8,0.7c-1.2,0.3-2.8-0.3-2.8-0.3c-0.5-0.2-1.3-0.2-1.3-0.2
	c-0.1,0-0.3-0.1-0.5-0.2c-1.2-0.4-3.5-0.7-3.5-0.7l0.2,0.3c0.3,0.1,0.5,0.2,0.5,0.4c0,0.2,0,0.3,0,0.3c-0.1,0.2-0.2,0.3-0.2,0.3
	l0.2,0.3c1.3,0.4,1.1,1.5,1.1,1.5c0.1,1,0.7,1.4,0.7,1.4c1.4,1.2,2.8,1,2.8,1c0.5,0,0.6,0.1,0.6,0.1c0.5,0.3,0.4,1.6,0.4,1.6
	c0,0.5-0.2,1.1-0.2,1.1c0.2,0.4,1,0.2,1,0.2c0.1,0,0.2-0.2,0.2-0.2c0.1-0.2-0.1-0.5-0.1-0.5c-0.1-0.1,0-0.1,0-0.1
	c0.5,0.2,0.5,0.9,0.5,0.9c0.8-1-0.3-1.7-0.3-1.7c-0.2,0-0.3-0.1-0.3-0.1c-0.1-0.5-0.2-1.6-0.2-1.6v-0.3l-0.4-0.4
	c-1.1,0.3-1.9-0.1-1.9-0.1c0-0.2,0-0.5,0-0.5c0.1-0.7-0.2-2.5-0.2-2.5c0.3,0.2,2.2,0.5,2.2,0.5c0.4,0.2,1.3,0.2,1.3,0.2
	c1.1,0.2,0.7,1,0.7,1c0.9-0.7,0.1-1.2,0.1-1.2C186.5,55.2,186.7,54.7,186.8,54.2L186.8,54.2z"/>
<path fill="#FFFFFF" d="M130.2,54.6c-0.4-0.9,0.2-1.9,0.2-1.9c1.1-1.7,2.5-2.1,2.5-2.1c0.8-1.2,1.9-1.2,1.9-1.2
	c-0.2,0.3-0.4,0.6-0.4,0.6c0.7-0.2,1.4-0.8,1.4-0.8c0,0.9-0.9,1.3-0.9,1.3c3.1,0.4,7.4-0.1,7.4-0.1c1.7-0.3,1.7-1.9,1.7-1.9
	c-0.4-1.5-2.2-0.6-2.2-0.6c-3.9,2.2-5.7-0.7-5.7-0.7c0.9,0.4,2.8,0.4,2.8,0.4c-0.7-0.3-1.6-1.3-1.6-1.3c0.6,0.1,0.9,0.3,0.9,0.3
	c1,0.5,2.1,0.4,2.1,0.4c-0.3-0.4-0.9-1-0.9-1c0.6,0.3,1.3,0.3,1.3,0.3c0.4,0,0.7,0.1,0.7,0.1c0.7,0.1,1.1,0,1.1,0
	c2.1,0.2,2.3,2.1,2.3,2.1c0.2,2.4-2.6,2.6-2.6,2.6c-1.1,0.3-7.4,0.2-7.4,0.2c0.6,0.3,0.8,0.9,0.8,0.9c0.1,0.3,0.3,0.5,0.3,0.5
	c-0.6,0-1.3-0.8-1.3-0.8c0.2,0.4,0.7,1,0.7,1c-0.4,0.2-1.1-0.8-1.1-0.8c-1.2-1-2.3,0-2.3,0c-1.1,0.9-0.9,1.7-0.9,1.7
	c0,0.3,0.1,0.5,0.3,0.7c0.4,0.5,1.1,0.4,1.1,0.4c0.8,0,1.5-0.2,2.2-0.4c0.7-0.2,1.3-0.5,1.3-0.5c0.2,0,0.4,0,0.4,0
	c0.4-0.2,0.9-0.2,0.9-0.2c1.8-0.2,6.9-2,6.9-2c0.7-0.3,1.9-1.6,1.9-1.6c0.4,0.3,0.7,1.3,0.7,1.3c0.2-0.1,0.3-0.4,0.3-0.4
	c0.2,0.9,1.5,1.4,1.5,1.4c0.4,0,0.6,0.4,0.6,0.4l0.1-0.4c0.2,0.2,1.4,1.1,2.6,1.9c1.3,0.9,2.6,1.7,2.6,1.7c1.1-1.2,1.9-0.5,1.9-0.5
	c-0.2,0.2-0.4,0.1-0.4,0.1c-0.6,0-0.9,0.3-0.9,0.3c1.3-0.2,1.6,0.2,1.6,0.2c0.3,0.7-0.6,1-0.6,1c0-0.9-0.9-0.9-0.9-0.9
	c0.6,0.3,0.6,0.9,0.6,0.9c-0.3,0.8-1,0.2-1,0.2c-0.2-0.1-0.6-0.4-0.6-0.4c-2-0.1-3.9-1.5-3.9-1.5l-1,0.4c-0.6-0.5-1.1-1.1-1.3-1.6
	c-0.1-0.2-0.2-0.4-0.2-0.4c0,0.1,0,0.2,0,0.4c0.1,0.6,0.5,1.1,0.5,1.1c-1.7,2-4.9,0.2-4.9,0.2c-0.4-0.1-1.5-0.7-1.5-0.7
	c-3.2,0-4.7,2.9-4.7,2.9l-0.2,0.4c-0.2,1.8-0.8,1.8-0.8,1.8c0.3-0.7-0.4-1-0.4-1c-0.5,0.1-1.6,0-1.6,0c-0.7,1.3-0.1,2.2-0.1,2.2
	c1.4,0,0.8,1.1,0.8,1.1c-0.1,0.4-0.4,0.4-0.4,0.4c0-1.2-1.1-1.1-1.1-1.1c0.9,0.4,0.7,0.9,0.7,0.9c-0.2,0-0.5,0.4-0.5,0.4
	c-1.4-0.9-1.2-2.5-1.2-2.5c0.2-2.8,0.8-3.3,0.8-3.3c0.2-0.1,0.3,0,0.3,0c0.6,0.3,1.4,0,1.4,0c0.3-0.1,0.4-0.7,0.4-0.7
	c0.2-1.1,1-2,1-2c-0.5,0.2-3.5,1-3.5,1c-1.4,0.3-1.7,1.5-1.7,1.5c-0.9-1.1,0.5-1.7,0.5-1.7C130.7,55.3,130.3,55,130.2,54.6
	L130.2,54.6z M146.1,53.7c0.4,0.7,1.5,1.7,1.5,1.7c0.1,0.1,0.3,0.2,0.3,0.2c-0.1,0.1-0.3,0.1-0.3,0.1c-0.9-0.5-1.5-1.6-1.5-1.6
	C145.8,53.6,146.1,53.7,146.1,53.7L146.1,53.7z M144.7,54.5c0.6,0.7,0.8,0.9,0.8,0.9c0.4,0.5,0.9,0.7,0.9,0.7
	c-1.1,0-1.7-1.2-1.7-1.2c-0.2-0.3-0.1-0.4-0.1-0.4L144.7,54.5L144.7,54.5z M145.4,54c0.3,0.8,1.5,1.6,1.5,1.6
	c0.3,0.1,0.2,0.3,0.2,0.3c-0.2,0-0.3-0.1-0.3-0.1c-1.1-0.4-1.5-1.6-1.5-1.6C145.1,53.8,145.4,54,145.4,54L145.4,54z"/>
</svg>
