<?xml version="1.0" encoding="utf-8"?>
<!-- Generator: Adobe Illustrator 18.1.1, SVG Export Plug-In . SVG Version: 6.00 Build 0)  -->
<svg version="1.1" id="Layer_1" xmlns="http://www.w3.org/2000/svg" xmlns:xlink="http://www.w3.org/1999/xlink" x="0px" y="0px"
	 viewBox="0 0 300 100" enable-background="new 0 0 300 100" xml:space="preserve">
<g>
	<rect x="109.1" y="18.9" fill="#900D0C" width="72.9" height="55.7"/>
	<g>
		<rect x="128.5" y="30.9" fill="#FFFFFF" width="10.3" height="10.5"/>
		<rect x="140.4" y="30.9" fill="#FFFFFF" width="10.3" height="10.5"/>
		<rect x="152.3" y="30.9" fill="#FFFFFF" width="10.3" height="10.5"/>
		<path fill="#900D0C" d="M133.8,39.8h-2.5v-7.5h1.9c0.6,0,1.1,0.1,1.4,0.2c0.3,0.2,0.6,0.4,0.8,0.7s0.3,0.6,0.3,1
			c0,0.7-0.4,1.3-1.1,1.6c0.5,0.1,1,0.3,1.3,0.7c0.3,0.3,0.5,0.8,0.5,1.2s-0.1,0.7-0.3,1s-0.5,0.5-0.8,0.7
			C134.8,39.7,134.3,39.8,133.8,39.8L133.8,39.8z M133.2,33.3h-0.9v2.2h0.7c0.6,0,1-0.1,1.2-0.3s0.4-0.5,0.4-0.8
			C134.6,33.7,134.1,33.3,133.2,33.3L133.2,33.3z M133.3,36.5h-1v2.4h1c0.6,0,1,0,1.2-0.1s0.4-0.2,0.5-0.4s0.2-0.4,0.2-0.6
			c0-0.2-0.1-0.4-0.2-0.6c-0.1-0.2-0.3-0.3-0.6-0.4C134.2,36.5,133.8,36.5,133.3,36.5L133.3,36.5z"/>
		<path fill="#900D0C" d="M145.7,39.8h-2.5v-7.5h1.9c0.6,0,1.1,0.1,1.4,0.2c0.3,0.2,0.6,0.4,0.8,0.7s0.3,0.6,0.3,1
			c0,0.7-0.4,1.3-1.1,1.6c0.5,0.1,1,0.3,1.3,0.7c0.3,0.3,0.5,0.8,0.5,1.2s-0.1,0.7-0.3,1s-0.5,0.5-0.8,0.7
			C146.7,39.7,146.2,39.8,145.7,39.8L145.7,39.8z M145.1,33.3h-0.9v2.2h0.7c0.6,0,1-0.1,1.2-0.3s0.4-0.5,0.4-0.8
			C146.5,33.7,146,33.3,145.1,33.3L145.1,33.3z M145.2,36.5h-1v2.4h1c0.6,0,1,0,1.2-0.1s0.4-0.2,0.5-0.4s0.2-0.4,0.2-0.6
			c0-0.2-0.1-0.4-0.2-0.6c-0.1-0.2-0.3-0.3-0.6-0.4C146.1,36.5,145.7,36.5,145.2,36.5L145.2,36.5z"/>
		<path fill="#900D0C" d="M160.5,38.1v1.2c-0.8,0.4-1.7,0.6-2.7,0.6c-0.8,0-1.5-0.2-2.1-0.5s-1-0.8-1.4-1.4
			c-0.3-0.6-0.5-1.2-0.5-1.9c0-1.1,0.4-2,1.1-2.7c0.8-0.7,1.7-1.1,2.8-1.1c0.8,0,1.6,0.2,2.6,0.6V34c-0.9-0.5-1.7-0.7-2.5-0.7
			s-1.5,0.3-2.1,0.8s-0.8,1.2-0.8,2s0.3,1.5,0.8,2s1.2,0.8,2.1,0.8C158.8,38.9,159.6,38.6,160.5,38.1L160.5,38.1z"/>
	</g>
	<g>
		<path fill="#FFFFFF" d="M130,46.4h1.9v13.7h-1.7l-9.1-10.5v10.5h-1.8V46.4h1.6L130,57V46.4z"/>
		<path fill="#FFFFFF" d="M134.8,46.4h7.8v1.7h-5.8v4.2h5.6v1.8h-5.6v4.2h6V60h-7.9V46.4H134.8z"/>
		<path fill="#FFFFFF" d="M162.3,46.4h2l-5.5,13.7h-0.4L153.8,49l-4.5,11.1h-0.4l-5.5-13.7h2l3.8,9.4l3.8-9.4h1.9l3.8,9.4
			L162.3,46.4z"/>
		<path fill="#FFFFFF" d="M169.1,54.3l-1.5-0.9c-0.9-0.6-1.6-1.1-2-1.7c-0.4-0.6-0.6-1.2-0.6-1.9c0-1.1,0.4-2,1.1-2.6
			c0.7-0.7,1.7-1,2.9-1c1.1,0,2.2,0.3,3.1,1v2.2c-1-0.9-2-1.4-3.2-1.4c-0.6,0-1.2,0.1-1.6,0.4c-0.4,0.3-0.6,0.7-0.6,1.1
			c0,0.4,0.2,0.8,0.5,1.2s0.8,0.7,1.5,1.1l1.5,0.9c1.7,1,2.5,2.3,2.5,3.8c0,1.1-0.4,2-1.1,2.7c-0.7,0.7-1.7,1-2.9,1
			c-1.4,0-2.6-0.4-3.7-1.2v-2.5c1.1,1.3,2.3,2,3.7,2c0.6,0,1.1-0.2,1.5-0.5s0.6-0.8,0.6-1.3C170.9,55.9,170.3,55.1,169.1,54.3z"/>
	</g>
</g>
<rect x="7.6" y="17.5" fill="#00568E" width="287.3" height="58.5"/>
<g>
	<g>
		<g>
			<polyline fill="#FFFFFF" points="218.1,36.5 218.1,38.8 220.9,40.1 220.9,57 218.2,58.2 218.2,60.5 231.8,60.5 231.8,58.2 
				229.2,57 229.2,34.8 228.5,34.8 218.1,36.5 			"/>
			<path fill="#FFFFFF" d="M246.3,55.7v-6.8l-1.9,0.2c-1.9,0.2-3.5,1.5-3.5,3.9c0,2.8,1.5,3.7,3.1,3.7
				C244.9,56.6,245.8,56.2,246.3,55.7 M240.4,38.2l-1.8,5.1h-4.3v-6.6c2.3-0.7,5.2-1.9,9.5-1.9c6.7,0,10.7,2,10.7,7.6V57l2.6,1.2
				v1.9c-0.8,0.4-2.7,1-4.7,1c-2.6,0-4.9-0.8-5.3-3.5H247c-1.1,2.2-4.1,3.6-7.2,3.6c-4.4,0-7.2-2.8-7.2-7c0-5.1,3.4-5.9,8.9-7.1
				l4.8-0.8v-3.3c0-3.2-1-4.8-4.2-4.8C241.7,38.1,240.9,38.2,240.4,38.2"/>
			<path fill="#FFFFFF" d="M257.9,58.2l2.6-1.2V40.1l-2.8-1.3v-2.3l10.3-1.7h0.7v3.3h0.3c2.2-2,5.2-3.3,8.6-3.3
				c4.2,0,6.3,2.1,6.3,6.7V57l2.7,1.2v2.3H273v-2.3l2.7-1.2V43.4c0-2.5-1.1-3.5-3.4-3.5c-1.2,0-2.4,0.2-3.4,0.6V57l2.7,1.2v2.3
				h-13.6V58.2"/>
			<path fill="#FFFFFF" d="M206.5,29.8l-2.8-1.3v-2.3l10.4-1.7h0.7v31.6l2.6,1.4v2.2l-9.9,1.1l-0.7,0v-2.6h-0.3
				c-1,1.3-3.2,2.7-6.3,2.7c-4.6,0-10-2.9-10-12.5c0-10.1,5.6-13.7,12.2-13.7c1.4,0,3,0.3,4,1V29.8 M206.5,56.1V39.2
				c-0.6-0.5-1.3-0.9-2.8-0.9c-2.6,0-4.6,2.4-4.6,9.4c0,6.2,1.6,8.9,4.9,8.9C205.2,56.6,205.9,56.3,206.5,56.1"/>
			<path fill="#FFFFFF" d="M103.4,68.8c-4.5,0-6.1-1.6-6.1-3.3c0-1.2,0.3-2,1-2.8h8.8c2.1,0,3,0.6,3,1.9
				C110.1,67.2,108.7,68.8,103.4,68.8 M103.5,37.8c1.8,0,3,0.8,3,5.8c0,5-1.2,5.5-3,5.5c-1.8,0-2.9-0.4-2.9-5.5
				C100.6,38.5,101.7,37.8,103.5,37.8z M109,55.1h-8.9c-1,0-1.8-0.7-1.8-1.6c0-0.7,0.5-1.4,1.1-1.9c1.4,0.4,2.5,0.5,4.1,0.5
				c6.4,0,10.8-2.9,10.8-8.4c0-2.4-1-3.8-2.6-5.3v-0.2l4.2,1.5l0.6,0v-5H116l-6.4,1.3h-0.4c-1.5-0.6-3.7-1.2-5.7-1.2
				c-6.4,0-10.9,3.2-10.9,8.6c0,3.3,1.7,5.8,4.1,7.1v0.3c-1.4,1-4.2,3.1-4.2,5.7c0,1.9,1.3,3.9,4,4.4v0.3c-2.8,0.6-6,1.5-6,4.8
				c0,3.3,4.8,5.8,12.7,5.8c9.8,0,14-3.7,14-9.7C117.2,57.4,114.5,55.1,109,55.1z"/>
			<path fill="#A1BED4" d="M22.6,53.5V39.7h-3.8v-3.8l3.8-0.5v-4.7l8.3-1.2v5.9h5.5v4.3h-5.5v13.1c0,2.4,0.7,3.7,3.1,3.7
				c0.9,0,2-0.1,2.6-0.2v3.2c-1.4,0.8-4.2,1.4-6.8,1.4C24.9,61,22.6,58.8,22.6,53.5"/>
			<path fill="#A1BED4" d="M77.7,37.6c2.1,0,3.2,0.4,3.2,7.7l-6.9,0.4C74,39.1,75,37.6,77.7,37.6 M74,48.7h14.9
				c0-10.5-3.6-13.8-11.1-13.8c-7.4,0-12.3,4.8-12.3,13c0,8.5,4.4,13.2,13,13.2c4.6,0,8.3-2,9.5-3.6V55c-1.7,0.5-3.5,0.9-6.7,0.9
				C76.8,55.9,74.4,53.6,74,48.7"/>
			<path fill="#FFFFFF" d="M171.5,36.5v2.3l2.8,1.3V57l-2.7,1.2v2.3H186v-2.3l-3.4-1.2l0-13.9c1.4-0.7,3.3-0.9,5.5-0.9
				c0.7,0,1.6,0.1,2.1,0.2v-7.3c-0.3-0.1-0.8-0.1-1.2-0.1c-2.7,0-5,1.8-6.4,5.1h-0.3v-5.3h-0.7L171.5,36.5"/>
			<path fill="#FFFFFF" d="M160,55.7v-6.8l-1.9,0.2c-1.9,0.2-3.5,1.5-3.5,3.9c0,2.8,1.5,3.7,3.1,3.7C158.6,56.6,159.6,56.2,160,55.7
				 M154.2,38.2l-1.8,5.1h-4.3v-6.6c2.3-0.7,5.2-1.9,9.5-1.9c6.7,0,10.7,2,10.7,7.6V57l2.6,1.2v1.9c-0.8,0.4-2.7,1-4.7,1
				c-2.6,0-4.9-0.8-5.3-3.5h-0.2c-1.1,2.2-4.1,3.6-7.2,3.6c-4.4,0-7.2-2.8-7.2-7c0-5.1,3.4-5.9,8.9-7.1l4.8-0.8v-3.3
				c0-3.2-1-4.8-4.2-4.8C155.5,38.1,154.7,38.2,154.2,38.2"/>
			<path fill="#FFFFFF" d="M119.9,40.1l-2.8-1.3v-2.3l10.4-1.7h0.7v17.6c0,2.8,1.4,3.3,3.5,3.3c1.6,0,2.2-0.3,3-0.6V40.1l-2.8-1.3
				v-2.3l10.4-1.7h0.7v21.4l2.8,1.4v2.2l-10.1,1.1l-0.7,0l0-3.3h-0.3c-1.6,2-4.2,3.4-7.6,3.4c-5,0-7.2-3.6-7.2-7.9V40.1"/>
			<path fill="#A1BED4" d="M37.3,58.2L40,57V29.8l-2.8-1.3v-2.3l10.3-1.7h0.7v13.6h0.3c2.2-2,5.2-3.3,8.6-3.3c4.2,0,6.3,2.1,6.3,6.7
				V57l2.7,1.2v2.3H52.4v-2.3l2.7-1.2V43.4c0-2.5-1.1-3.5-3.4-3.5c-1.2,0-2.4,0.2-3.4,0.6V57l2.7,1.2v2.3H37.3V58.2"/>
			<path fill="#FFFFFF" d="M224.8,24.6c2.5,0,4.5,2,4.5,4.5c0,2.5-2,4.5-4.5,4.5c-2.5,0-4.5-2-4.5-4.5
				C220.4,26.5,222.4,24.6,224.8,24.6"/>
		</g>
	</g>
</g>
</svg>
